<svg width="327" height="327" viewBox="0 0 327 327" fill="none" xmlns="http://www.w3.org/2000/svg">
<path d="M327 250.09H0V250.253H327V250.09Z" fill="#EBEBEB"/>
<path d="M154.998 220.921H28.7171C27.7278 220.919 26.7796 220.525 26.0807 219.825C25.3818 219.125 24.9893 218.176 24.9893 217.187V39.6716C24.9979 38.688 25.3942 37.7475 26.0922 37.0544C26.7902 36.3614 27.7334 35.9717 28.7171 35.97H154.998C155.988 35.97 156.938 36.3634 157.639 37.0637C158.339 37.7641 158.732 38.7139 158.732 39.7043V217.187C158.732 218.177 158.339 219.127 157.639 219.827C156.938 220.528 155.988 220.921 154.998 220.921ZM28.7171 36.1008C27.7711 36.1025 26.8646 36.4795 26.1963 37.149C25.5281 37.8184 25.1528 38.7257 25.1528 39.6716V217.187C25.1528 218.133 25.5281 219.04 26.1963 219.709C26.8646 220.379 27.7711 220.756 28.7171 220.758H154.998C155.944 220.756 156.852 220.379 157.521 219.71C158.19 219.041 158.567 218.133 158.569 217.187V39.6716C158.567 38.7251 158.19 37.8178 157.521 37.1486C156.852 36.4793 155.944 36.1025 154.998 36.1008H28.7171Z" fill="#EBEBEB"/>
<path d="M296.465 220.921H170.178C169.188 220.919 168.239 220.525 167.539 219.826C166.839 219.126 166.445 218.177 166.443 217.187V39.6716C166.454 38.6874 166.851 37.7469 167.55 37.054C168.25 36.3611 169.193 35.9716 170.178 35.97H296.465C297.448 35.9734 298.389 36.3638 299.086 37.0567C299.782 37.7496 300.178 38.6891 300.186 39.6716V217.187C300.186 218.175 299.795 219.123 299.097 219.823C298.4 220.523 297.453 220.918 296.465 220.921ZM170.178 36.1008C169.231 36.1025 168.324 36.4793 167.655 37.1486C166.985 37.8178 166.609 38.7251 166.607 39.6716V217.187C166.609 218.133 166.985 219.041 167.655 219.71C168.324 220.379 169.231 220.756 170.178 220.758H296.465C297.412 220.756 298.319 220.379 298.988 219.71C299.657 219.041 300.034 218.133 300.036 217.187V39.6716C300.034 38.7251 299.657 37.8178 298.988 37.1486C298.319 36.4793 297.412 36.1025 296.465 36.1008H170.178Z" fill="#EBEBEB"/>
<path d="M131.088 256.316H114.084V256.479H131.088V256.316Z" fill="#EBEBEB"/>
<path d="M69.69 254.543H34.3086V254.707H69.69V254.543Z" fill="#EBEBEB"/>
<path d="M113.43 262.391H96.2168V262.555H113.43V262.391Z" fill="#EBEBEB"/>
<path d="M194.278 261.293H168.883V261.456H194.278V261.293Z" fill="#EBEBEB"/>
<path d="M207.089 261.293H200.098V261.456H207.089V261.293Z" fill="#EBEBEB"/>
<path d="M294.241 258.533H258.559V258.696H294.241V258.533Z" fill="#EBEBEB"/>
<path d="M101.756 53.0132H43.1514V179.752H101.756V53.0132Z" fill="#E6E6E6"/>
<path d="M103.999 53.0132H45.3945V179.752H103.999V53.0132Z" fill="#F5F5F5"/>
<path d="M99.9707 175.998L99.9707 56.7737H49.4165L49.4165 175.998H99.9707Z" fill="white"/>
<path d="M99.9707 175.998L99.9707 56.7737H98.2768L98.2768 175.998H99.9707Z" fill="#E6E6E6"/>
<path d="M102.338 160.55H47.0615V165.593H102.338V160.55Z" fill="#F5F5F5"/>
<path d="M102.338 147.248H47.0615V152.29H102.338V147.248Z" fill="#F5F5F5"/>
<path d="M182.374 53.0132H123.77V179.752H182.374V53.0132Z" fill="#E6E6E6"/>
<path d="M184.619 53.0132H126.014V179.752H184.619V53.0132Z" fill="#F5F5F5"/>
<path d="M180.59 175.998V56.7737H130.036V175.998H180.59Z" fill="white"/>
<path d="M180.596 175.998V56.7737H178.902V175.998H180.596Z" fill="#E6E6E6"/>
<path d="M182.956 160.55H127.68V165.593H182.956V160.55Z" fill="#F5F5F5"/>
<path d="M182.956 147.248H127.68V152.29H182.956V147.248Z" fill="#F5F5F5"/>
<path d="M226.552 143.71C235.244 145.966 244.7 153.186 247.388 160.328C248.143 154.063 249.156 147.83 250.429 141.63C249.75 142.455 248.983 143.203 248.14 143.86C236.022 154.161 229.076 130.97 233.909 113.43C242.248 116.752 250.724 125.117 252.496 132.553C254.035 126.409 255.827 120.327 257.872 114.306C257.092 115.05 256.235 115.708 255.315 116.268C241.993 125.032 237.997 101.076 245.054 84.1305C252.902 88.4796 260.259 97.8645 261.07 105.529C263.206 100.001 265.567 94.5509 268.153 89.1794C258.997 89.0093 262.81 71.6718 271.024 62.0907C277.4 70.73 281.357 86.4522 270.965 88.8655C269.967 90.9059 269.001 92.9573 268.068 95.0196C274.15 90.1015 285.987 90.4416 294.11 94.1956C286.785 106.079 270.723 120.748 265.138 106.667C264.775 105.668 264.531 104.63 264.412 103.574C262.058 109.429 259.954 115.359 258.101 121.363C263.503 115.784 275.268 114.679 283.797 117.393C278.081 129.956 263.993 146.411 256.675 133.2C256.187 132.262 255.815 131.267 255.57 130.238C253.97 136.298 252.629 142.402 251.548 148.549C256.204 142.369 267.734 139.838 276.531 141.467C272.443 154.547 260.514 172.597 251.607 160.433C251.005 159.566 250.513 158.628 250.142 157.64C249.309 163.831 248.738 170.051 248.428 176.299C252.28 169.589 263.405 165.665 272.338 166.188C269.919 179.647 260.305 199.058 249.959 188.077C249.72 187.797 249.423 187.572 249.088 187.419C248.753 187.267 248.388 187.189 248.02 187.193C247.652 187.197 247.289 187.282 246.957 187.441C246.625 187.601 246.333 187.831 246.1 188.117L245.78 188.515C245.749 182.198 245.984 175.891 246.486 169.595C245.906 170.492 245.236 171.327 244.485 172.087C233.72 183.774 223.949 161.63 226.552 143.71Z" fill="#F5F5F5"/>
<path d="M259.54 158.078C253.811 159.903 247.689 165.128 246.08 170.086C245.422 165.843 244.591 161.629 243.589 157.444C244.06 157.98 244.588 158.463 245.165 158.883C253.49 165.508 257.545 149.478 253.889 137.68C248.422 140.218 242.98 146.182 241.986 151.322C240.809 147.189 239.466 143.102 237.958 139.06C238.492 139.536 239.078 139.95 239.704 140.296C248.795 145.835 250.861 129.381 245.734 118.06C240.613 121.278 235.957 127.922 235.603 133.161C234.047 129.464 232.34 125.827 230.483 122.252C236.558 121.84 233.609 110.147 227.899 103.888C223.871 109.983 221.627 120.826 228.606 122.128C229.316 123.488 230.009 124.857 230.685 126.235C226.513 123.076 218.639 123.697 213.328 126.523C218.501 134.371 229.554 143.854 232.948 134.076C233.164 133.383 233.3 132.668 233.354 131.944C235.067 135.868 236.615 139.84 237.997 143.86C234.263 140.237 226.402 139.864 220.79 141.99C224.91 150.374 234.694 161.126 239.24 151.885C239.54 151.229 239.76 150.54 239.894 149.831C241.11 153.904 242.154 158.024 243.026 162.192C239.756 158.131 232.039 156.783 226.218 158.183C229.266 166.973 237.657 178.875 243.281 170.295C243.664 169.681 243.969 169.022 244.19 168.333C244.897 172.523 245.431 176.743 245.793 180.994C243.065 176.547 235.558 174.232 229.626 174.886C231.588 183.977 238.455 196.9 245.067 189.071C245.214 188.874 245.404 188.712 245.623 188.597C245.841 188.483 246.082 188.419 246.328 188.409C246.575 188.4 246.82 188.446 247.047 188.543C247.273 188.641 247.475 188.788 247.637 188.973L247.866 189.235C247.722 184.931 247.408 180.641 246.924 176.364C247.329 176.955 247.796 177.501 248.317 177.993C255.76 185.618 261.711 170.21 259.54 158.078Z" fill="#EBEBEB"/>
<path d="M274.222 179.379C274.222 179.379 273.607 250.09 250.175 250.09C226.742 250.09 226.127 179.379 226.127 179.379H274.222Z" fill="#F0F0F0"/>
<path d="M63.8559 232.091L190.699 232.091V188.934H63.8559V232.091Z" fill="#F5F5F5"/>
<path d="M187.215 228.599V192.42H67.3497V228.599H187.215Z" fill="#EBEBEB"/>
<path d="M147.059 228.606V192.426H67.3425V228.606H147.059Z" fill="#E6E6E6"/>
<path d="M147.059 228.606V192.426H93.0578V228.606H147.059Z" fill="#E0E0E0"/>
<path d="M183.094 216.585V204.44H181.995V216.585H183.094Z" fill="#E0E0E0"/>
<path d="M187.215 195.265V192.42H67.3497V195.265H187.215Z" fill="#E0E0E0"/>
<path d="M63.8562 188.934H46.2832V232.092H63.8562V188.934Z" fill="#E6E6E6"/>
<path d="M65.5568 250.09H63.8564V232.092H66.7929L65.5568 250.09Z" fill="#F5F5F5"/>
<path d="M189 250.09H190.7V232.092H187.764L189 250.09Z" fill="#F5F5F5"/>
<path d="M47.9836 250.09H46.2832V232.092H49.2197L47.9836 250.09Z" fill="#E6E6E6"/>
<path d="M171.427 250.09H173.128V232.092H170.191L171.427 250.09Z" fill="#E6E6E6"/>
<path d="M163.5 279.624C233.532 279.624 290.304 276.31 290.304 272.221C290.304 268.132 233.532 264.818 163.5 264.818C93.4684 264.818 36.6963 268.132 36.6963 272.221C36.6963 276.31 93.4684 279.624 163.5 279.624Z" fill="#F5F5F5"/>
<path d="M187.228 87.3286C199.471 83.1495 207.973 75.0269 208.692 65.1318C209.824 49.5536 191.237 35.5056 167.176 33.7398C143.116 31.974 122.704 43.2163 121.566 58.8011C120.644 71.5214 132.861 83.2149 150.467 88.0284C145.889 93.1296 138.387 95.0066 138.387 95.0066C138.387 95.0066 152.716 94.176 157.72 89.598C159.472 89.8661 161.258 90.0754 163.082 90.2062C169.058 90.6597 175.068 90.2744 180.937 89.0617C185.482 93.8686 197.228 97.0797 197.228 97.0797C197.228 97.0797 190.06 93.522 187.228 87.3286Z" fill="white"/>
<path opacity="0.3" d="M187.228 87.3286C199.471 83.1495 207.973 75.0269 208.692 65.1318C209.824 49.5536 191.237 35.5056 167.176 33.7398C143.116 31.974 122.704 43.2163 121.566 58.8011C120.644 71.5214 132.861 83.2149 150.467 88.0284C145.889 93.1296 138.387 95.0066 138.387 95.0066C138.387 95.0066 152.716 94.176 157.72 89.598C159.472 89.8661 161.258 90.0754 163.082 90.2062C169.058 90.6597 175.068 90.2744 180.937 89.0617C185.482 93.8686 197.228 97.0797 197.228 97.0797C197.228 97.0797 190.06 93.522 187.228 87.3286Z" fill="#407BFF"/>
<path d="M190.969 75.707L185.803 76.1256C186.129 76.8846 186.286 77.7054 186.264 78.5312C186.242 79.357 186.04 80.1681 185.674 80.9085C185.307 81.6488 184.784 82.3007 184.141 82.8189C183.498 83.3372 182.749 83.7095 181.948 83.9101C181.147 84.1107 180.311 84.1348 179.499 83.9807C178.688 83.8266 177.919 83.498 177.247 83.0177C176.575 82.5373 176.015 81.9167 175.607 81.1987C175.198 80.4807 174.95 79.6825 174.881 78.8593C174.83 78.2358 174.883 77.6081 175.038 77.002L166.3 77.7148L165.587 68.9708C166.969 69.3391 168.441 69.1463 169.681 68.4346C170.663 67.8892 171.466 67.072 171.993 66.0811C172.521 65.0903 172.752 63.9681 172.657 62.8494C172.567 61.9545 172.267 61.0935 171.78 60.337C171.294 59.5805 170.635 58.95 169.858 58.497C169.081 58.0441 168.208 57.7816 167.31 57.731C166.412 57.6804 165.514 57.8432 164.691 58.206L163.979 49.4686L172.723 48.7557C172.374 47.9706 172.213 47.1154 172.252 46.2574C172.319 44.8755 172.881 43.5639 173.836 42.5625C174.791 41.561 176.074 40.9365 177.451 40.8031C178.358 40.7217 179.271 40.8589 180.114 41.2033C180.957 41.5476 181.705 42.089 182.296 42.782C182.886 43.4751 183.302 44.2996 183.508 45.1865C183.714 46.0734 183.705 46.9968 183.481 47.8793L188.654 47.4608C189.599 47.3847 190.535 47.6861 191.258 48.299C191.982 48.9118 192.433 49.7862 192.513 50.7308L194.239 71.855C194.315 72.7992 194.013 73.7349 193.4 74.457C192.787 75.1792 191.913 75.6287 190.969 75.707Z" fill="#263238"/>
<path d="M167.163 57.7417C166.314 57.7103 165.469 57.8713 164.691 58.2125L163.978 49.4751L155.247 50.1814C155.519 50.8022 155.676 51.4668 155.712 52.1434C155.759 53.6222 155.231 55.0617 154.237 56.1585C153.244 57.2553 151.864 57.9237 150.388 58.0229C148.912 58.1221 147.455 57.6443 146.324 56.6903C145.193 55.7363 144.476 54.3805 144.326 52.9086C144.273 52.2854 144.324 51.6578 144.476 51.0512L139.309 51.4763C138.842 51.5143 138.386 51.6441 137.968 51.8583C137.551 52.0724 137.18 52.3668 136.876 52.7246C136.572 53.0823 136.342 53.4964 136.198 53.9432C136.055 54.39 136.001 54.8607 136.039 55.3284L137.753 76.4395C137.833 77.3841 138.284 78.2584 139.007 78.8713C139.73 79.4841 140.667 79.7855 141.611 79.7095L146.785 79.2844C146.496 80.4008 146.557 81.579 146.961 82.6591C147.23 83.3678 147.638 84.0157 148.16 84.565C148.683 85.1143 149.31 85.554 150.004 85.8582C150.698 86.1625 151.446 86.3252 152.204 86.3369C152.962 86.3487 153.715 86.2092 154.419 85.9266C155.122 85.644 155.762 85.224 156.301 84.6911C156.84 84.1582 157.268 83.5232 157.559 82.8231C157.85 82.1231 157.998 81.3721 157.996 80.614C157.993 79.8559 157.839 79.106 157.543 78.4081L166.287 77.7017L165.574 68.9578C166.18 69.1125 166.808 69.1656 167.431 69.1147C168.94 68.993 170.339 68.277 171.32 67.1242C172.301 65.9713 172.784 64.4761 172.663 62.9671C172.532 61.5788 171.903 60.285 170.892 59.3245C169.881 58.364 168.556 57.8018 167.163 57.7417Z" fill="#407BFF"/>
<path d="M156.223 40.1621C155.714 39.6787 155.174 39.2287 154.607 38.8149L155.026 38.2263C155.623 38.6566 156.189 39.1287 156.72 39.6389L156.223 40.1621Z" fill="#263238"/>
<path d="M160.59 46.1724C159.967 44.722 159.125 43.3764 158.092 42.183L158.648 41.7252C159.73 42.9823 160.612 44.3984 161.264 45.9238L160.59 46.1724Z" fill="#407BFF"/>
<path d="M165.411 44.6616H164.691C164.711 41.7706 165.738 38.9767 167.595 36.7613L168.151 37.2256C166.401 39.3106 165.433 41.9399 165.411 44.6616Z" fill="#263238"/>
<path d="M161.977 41.287C161.977 41.2543 161.212 37.6966 159.793 35.5776L160.388 35.1721C161.892 37.4088 162.651 40.9927 162.684 41.1431L161.977 41.287Z" fill="#407BFF"/>
<path d="M172.003 87.4856C171.458 86.9909 170.946 86.4599 170.473 85.8963L171.022 85.432C171.477 85.9667 171.967 86.4713 172.487 86.9427L172.003 87.4856Z" fill="#263238"/>
<path d="M169.471 84.7715C168.326 83.2605 167.46 81.5574 166.914 79.7422L167.614 79.5591C168.134 81.2913 168.956 82.9184 170.04 84.366L169.471 84.7715Z" fill="#407BFF"/>
<path d="M164.645 84.2025C164.354 82.7134 164.542 81.1706 165.181 79.7946L165.835 80.115C165.283 81.3446 165.116 82.7128 165.358 84.039L164.645 84.2025Z" fill="#407BFF"/>
<path d="M119.735 212.033C115.53 188.561 113.777 160.263 113.777 160.263L136.19 159.91C136.19 159.91 134.274 198.051 133.345 214.028C132.384 230.633 131.71 262.601 131.71 262.601H123.98C123.98 262.601 117.401 232.569 119.735 212.033Z" fill="#263238"/>
<path opacity="0.2" d="M124.26 166.652C124.26 166.652 121.219 189.438 118.721 206.141C116.504 192.099 115.098 177.365 114.365 168.477L124.26 166.652Z" fill="black"/>
<path d="M142.095 270.449C142.095 270.449 131.716 268.009 131.258 264.471L124.64 265.328L123.914 272.221H126.648L127.086 271.364L128.002 272.221C137.288 272.221 140.728 272.123 142.448 271.567C142.503 271.366 142.498 271.154 142.436 270.956C142.373 270.758 142.255 270.582 142.095 270.449Z" fill="#263238"/>
<path d="M123.697 266.577C126.182 266.721 131.146 266.355 132.114 265.877C133.082 265.4 132.507 261.548 132.507 261.548C132.507 261.548 123.828 260.684 123.063 261.162C122.298 261.639 123.697 266.577 123.697 266.577Z" fill="#407BFF"/>
<path opacity="0.3" d="M123.697 266.577C126.182 266.721 131.146 266.355 132.114 265.877C133.082 265.4 132.507 261.548 132.507 261.548C132.507 261.548 123.828 260.684 123.063 261.162C122.298 261.639 123.697 266.577 123.697 266.577Z" fill="white"/>
<path d="M98.9249 211.366C102.751 187.763 102.627 171.995 106.452 160.354L128.329 160.053C128.329 160.053 117.721 197.508 112.92 213.099C108.12 228.691 99.3304 262.601 99.3304 262.601H92.2148C92.2148 262.601 92.5288 229.626 98.9249 211.366Z" fill="#263238"/>
<path d="M106.786 270.449C106.786 270.449 98.9382 268.009 98.5 264.471L91.8815 265.328L91.1621 272.221H92.869L93.3072 271.364L94.2228 272.221C103.51 272.221 105.419 272.123 107.139 271.567C107.194 271.366 107.189 271.154 107.127 270.956C107.064 270.758 106.946 270.582 106.786 270.449Z" fill="#263238"/>
<path d="M91.1613 266.407C92.6851 266.721 98.46 266.355 99.4933 265.877C100.527 265.4 100.206 261.358 100.206 261.358C100.206 261.358 92.3581 260.423 91.5145 260.9C90.6708 261.378 91.1613 266.407 91.1613 266.407Z" fill="#407BFF"/>
<path opacity="0.3" d="M91.1613 266.407C92.6851 266.721 98.46 266.355 99.4933 265.877C100.527 265.4 100.206 261.358 100.206 261.358C100.206 261.358 92.3581 260.423 91.5145 260.9C90.6708 261.378 91.1613 266.407 91.1613 266.407Z" fill="white"/>
<path d="M136.071 118.714L137.948 120.329L139.91 121.964C141.218 123.057 142.526 124.103 143.834 125.123C144.488 125.627 145.142 126.117 145.796 126.582C146.45 127.046 147.104 127.504 147.725 127.89C148.346 128.276 148.994 128.661 149.569 128.975C150.016 129.215 150.48 129.423 150.956 129.597L150.06 129.531C149.936 129.59 150.25 129.597 150.649 129.531C151.142 129.403 151.623 129.233 152.087 129.021C153.245 128.496 154.368 127.897 155.449 127.229C156.613 126.575 157.777 125.79 158.948 125.012L162.466 122.658L162.551 122.605C163.051 122.286 163.643 122.145 164.233 122.207C164.822 122.268 165.374 122.528 165.796 122.944C166.219 123.36 166.487 123.906 166.559 124.495C166.63 125.083 166.499 125.678 166.188 126.183C165.336 127.478 164.412 128.725 163.421 129.917C162.424 131.122 161.363 132.273 160.243 133.364C159.055 134.525 157.77 135.584 156.404 136.529C155.618 137.072 154.787 137.544 153.919 137.942C152.77 138.486 151.53 138.809 150.263 138.897C150.067 138.916 149.87 138.916 149.674 138.897L149.367 138.851C148.109 138.658 146.878 138.32 145.698 137.844C144.709 137.454 143.743 137.006 142.807 136.503C141.078 135.584 139.407 134.559 137.804 133.436C136.234 132.357 134.75 131.212 133.304 130.041C132.585 129.446 131.866 128.858 131.172 128.236C130.479 127.615 129.812 127.013 129.08 126.307C128.106 125.374 127.536 124.097 127.489 122.75C127.443 121.402 127.925 120.09 128.832 119.092C129.739 118.094 131 117.491 132.346 117.409C133.692 117.327 135.017 117.774 136.038 118.655L136.071 118.714Z" fill="#CF7A64"/>
<path d="M163.363 127.366L169.158 127.321L167.156 120.663C167.156 120.663 161.924 121.317 161.826 124.188L163.363 127.366Z" fill="#CE7A63"/>
<path d="M173.415 123.057L172.316 120.846C172.106 120.419 171.75 120.08 171.313 119.891C170.875 119.701 170.385 119.674 169.929 119.813L167.156 120.663L169.157 127.321L172.467 125.771C172.709 125.657 172.926 125.496 173.105 125.297C173.284 125.098 173.422 124.865 173.51 124.613C173.599 124.36 173.636 124.092 173.619 123.825C173.603 123.558 173.534 123.297 173.415 123.057Z" fill="#CE7A63"/>
<path d="M130.76 115.156C128.665 116.732 127.219 119.02 126.696 121.589C126.173 124.158 126.609 126.83 127.922 129.1C128.282 129.751 128.733 130.348 129.263 130.872C131.558 133.05 137.248 134.972 140.982 136.594C145.737 134.901 148.176 129.865 147.45 127.072C143.834 122.278 137.228 115.254 133.801 114.326C132.762 114.038 131.761 114.45 130.76 115.156Z" fill="#263238"/>
<path d="M109.82 113.266C116.514 112.528 123.266 112.484 129.969 113.135C132.728 113.427 135.28 114.731 137.132 116.796C138.984 118.86 140.004 121.539 139.995 124.312C139.963 134.619 138.308 146.005 136.594 161.839C131.716 166.881 105.543 161.636 105.543 161.636C105.817 155.89 106.526 150.173 107.662 144.534C106.772 137.994 104.509 130.538 103.234 121.873C103.09 120.874 103.147 119.856 103.401 118.879C103.656 117.902 104.103 116.986 104.716 116.184C105.33 115.382 106.097 114.711 106.974 114.21C107.85 113.709 108.818 113.388 109.82 113.266Z" fill="#407BFF"/>
<mask id="mask0_615_60" style="mask-type:luminance" maskUnits="userSpaceOnUse" x="103" y="112" width="37" height="53">
<path d="M109.82 113.266C116.514 112.528 123.266 112.484 129.969 113.135C132.728 113.427 135.28 114.731 137.132 116.796C138.984 118.86 140.004 121.539 139.995 124.312C139.963 134.619 138.308 146.005 136.594 161.839C131.716 166.881 105.543 161.636 105.543 161.636C105.817 155.89 106.526 150.173 107.662 144.534C106.772 137.994 104.509 130.538 103.234 121.873C103.09 120.874 103.147 119.856 103.401 118.879C103.656 117.902 104.103 116.986 104.716 116.184C105.33 115.382 106.097 114.711 106.974 114.21C107.85 113.709 108.818 113.388 109.82 113.266Z" fill="white"/>
</mask>
<g mask="url(#mask0_615_60)">
<g opacity="0.2">
<path d="M108.708 124.26C108.664 124.26 108.621 124.243 108.59 124.213C108.558 124.182 108.539 124.14 108.538 124.097C108.536 124.074 108.539 124.051 108.546 124.029C108.553 124.007 108.565 123.987 108.58 123.97C108.596 123.953 108.614 123.939 108.635 123.929C108.656 123.92 108.678 123.914 108.701 123.913C110.002 123.839 111.244 123.343 112.239 122.501C112.049 122.414 111.881 122.284 111.749 122.121C111.585 121.902 111.469 121.65 111.409 121.382C111.023 119.976 111.369 118.112 112.762 117.367C112.993 117.209 113.27 117.133 113.549 117.152C113.828 117.171 114.092 117.284 114.299 117.471C114.433 117.65 114.518 117.859 114.548 118.08C114.672 118.977 114.517 119.89 114.103 120.696C113.805 121.305 113.407 121.859 112.926 122.337H113.044C113.557 122.363 114.071 122.273 114.545 122.074C115.019 121.874 115.443 121.571 115.784 121.186C116.471 120.394 116.876 119.395 116.935 118.348C116.936 118.325 116.941 118.303 116.951 118.282C116.961 118.262 116.975 118.244 116.992 118.229C117.009 118.214 117.029 118.203 117.051 118.197C117.073 118.19 117.096 118.188 117.118 118.191C117.164 118.194 117.206 118.215 117.237 118.249C117.267 118.284 117.283 118.328 117.282 118.374C117.215 119.499 116.778 120.571 116.039 121.422C115.664 121.847 115.197 122.182 114.673 122.4C114.15 122.619 113.584 122.716 113.018 122.684C112.883 122.671 112.75 122.649 112.619 122.618C111.532 123.589 110.149 124.162 108.695 124.247L108.708 124.26ZM113.554 117.498C113.335 117.506 113.122 117.566 112.932 117.674C111.703 118.328 111.402 120.048 111.742 121.297C111.791 121.515 111.885 121.72 112.017 121.899C112.152 122.062 112.332 122.182 112.534 122.246C113.051 121.759 113.477 121.183 113.789 120.545C114.172 119.805 114.318 118.965 114.208 118.139C114.19 117.978 114.131 117.825 114.038 117.694C113.98 117.622 113.906 117.564 113.822 117.524C113.738 117.484 113.647 117.464 113.554 117.465V117.498Z" fill="white"/>
<path d="M123.357 130.728H123.298C122.238 130.35 121.332 129.633 120.722 128.688C120.416 128.206 120.223 127.662 120.158 127.096C120.094 126.529 120.159 125.955 120.349 125.418C120.399 125.292 120.458 125.169 120.525 125.051C119.898 123.746 119.729 122.266 120.048 120.853C120.064 120.813 120.093 120.781 120.13 120.762C120.167 120.742 120.211 120.737 120.252 120.746C120.293 120.756 120.329 120.779 120.354 120.813C120.379 120.847 120.391 120.889 120.388 120.931C120.099 122.204 120.227 123.537 120.754 124.731C120.891 124.569 121.063 124.442 121.258 124.358C121.512 124.262 121.784 124.222 122.056 124.24C123.521 124.24 125.182 125.104 125.535 126.66C125.623 126.925 125.619 127.211 125.524 127.473C125.429 127.736 125.248 127.958 125.012 128.106C124.803 128.185 124.578 128.21 124.358 128.177C123.463 128.044 122.63 127.64 121.971 127.02C121.468 126.564 121.045 126.027 120.722 125.431C120.722 125.47 120.689 125.509 120.676 125.542C120.509 126.028 120.453 126.545 120.512 127.055C120.571 127.565 120.743 128.056 121.016 128.491C121.582 129.374 122.427 130.041 123.416 130.388C123.438 130.395 123.458 130.407 123.475 130.422C123.492 130.437 123.506 130.456 123.516 130.477C123.526 130.498 123.531 130.52 123.532 130.543C123.533 130.566 123.529 130.589 123.521 130.61C123.51 130.645 123.488 130.675 123.458 130.696C123.429 130.717 123.393 130.728 123.357 130.728ZM120.918 125.084C121.248 125.719 121.691 126.289 122.226 126.765C122.829 127.342 123.597 127.717 124.423 127.837C124.581 127.866 124.743 127.853 124.894 127.798C125.234 127.648 125.319 127.144 125.221 126.745C124.914 125.378 123.37 124.613 122.075 124.587C121.853 124.575 121.63 124.608 121.421 124.685C121.217 124.765 121.042 124.904 120.918 125.084Z" fill="white"/>
<path d="M136.745 126.457C136.61 126.463 136.476 126.439 136.352 126.387C136.227 126.335 136.116 126.257 136.025 126.157C135.885 125.984 135.794 125.776 135.764 125.555C135.614 124.665 135.746 123.75 136.143 122.939C136.426 122.323 136.808 121.757 137.275 121.265H137.157C136.644 121.254 136.134 121.357 135.666 121.568C135.198 121.778 134.782 122.09 134.449 122.481C133.781 123.292 133.401 124.302 133.37 125.352C133.367 125.398 133.346 125.44 133.312 125.471C133.278 125.501 133.233 125.517 133.187 125.516C133.141 125.512 133.099 125.491 133.068 125.457C133.038 125.423 133.022 125.378 133.024 125.333C133.059 124.207 133.469 123.126 134.188 122.259C134.554 121.829 135.014 121.488 135.532 121.261C136.049 121.035 136.612 120.928 137.176 120.951C137.313 120.957 137.449 120.974 137.582 121.003C138.636 120.009 139.997 119.402 141.441 119.283C141.463 119.28 141.486 119.282 141.508 119.289C141.529 119.295 141.549 119.306 141.567 119.321C141.584 119.336 141.598 119.354 141.608 119.375C141.617 119.395 141.623 119.417 141.624 119.44C141.626 119.485 141.61 119.529 141.581 119.563C141.552 119.597 141.511 119.618 141.467 119.623C140.165 119.736 138.934 120.263 137.955 121.127C138.152 121.206 138.327 121.332 138.465 121.494C138.632 121.708 138.752 121.956 138.818 122.22C139.237 123.619 138.936 125.457 137.562 126.268C137.31 126.398 137.029 126.463 136.745 126.457ZM137.674 121.343C137.167 121.841 136.755 122.426 136.457 123.07C136.093 123.821 135.968 124.665 136.097 125.49C136.125 125.647 136.187 125.797 136.281 125.928C136.44 126.047 136.634 126.112 136.833 126.112C137.032 126.112 137.226 126.047 137.386 125.928C138.596 125.221 138.857 123.521 138.491 122.278C138.436 122.061 138.338 121.856 138.203 121.677C138.062 121.518 137.878 121.402 137.674 121.343Z" fill="white"/>
<path d="M130.022 123.017H129.99C129.945 123.008 129.906 122.981 129.88 122.944C129.854 122.906 129.844 122.86 129.852 122.815C130.108 121.536 129.948 120.209 129.394 119.028C129.258 119.189 129.089 119.318 128.897 119.407C128.645 119.512 128.373 119.561 128.099 119.551C126.641 119.551 124.973 118.747 124.588 117.21C124.492 116.947 124.489 116.66 124.578 116.395C124.667 116.13 124.843 115.903 125.078 115.751C125.285 115.668 125.51 115.638 125.732 115.666C126.632 115.775 127.475 116.161 128.145 116.772C128.664 117.212 129.106 117.736 129.453 118.322L129.493 118.21C129.649 117.72 129.693 117.201 129.622 116.692C129.551 116.183 129.366 115.696 129.08 115.267C128.489 114.401 127.626 113.757 126.628 113.436C126.585 113.42 126.55 113.388 126.531 113.346C126.511 113.305 126.508 113.257 126.523 113.214C126.531 113.192 126.542 113.172 126.558 113.155C126.573 113.138 126.591 113.124 126.612 113.114C126.633 113.104 126.655 113.099 126.678 113.098C126.701 113.097 126.724 113.101 126.746 113.109C127.812 113.454 128.732 114.144 129.362 115.071C129.683 115.545 129.891 116.087 129.969 116.654C130.047 117.221 129.994 117.798 129.813 118.341C129.768 118.467 129.714 118.59 129.649 118.708C130.309 120 130.512 121.477 130.225 122.9C130.21 122.94 130.182 122.974 130.145 122.995C130.108 123.017 130.064 123.025 130.022 123.017ZM125.529 116C125.417 115.997 125.306 116.017 125.202 116.059C124.869 116.216 124.797 116.713 124.901 117.118C125.242 118.472 126.791 119.198 128.08 119.198C128.303 119.209 128.527 119.171 128.734 119.087C128.927 118.997 129.09 118.854 129.205 118.675C128.871 118.051 128.428 117.493 127.897 117.027C127.281 116.465 126.507 116.108 125.68 116.006L125.529 116Z" fill="white"/>
<path d="M111.539 141.918C111.499 141.91 111.463 141.889 111.437 141.857C111.411 141.825 111.396 141.786 111.396 141.745C111.396 141.704 111.411 141.664 111.437 141.632C111.463 141.601 111.499 141.579 111.539 141.571C112.842 141.495 114.086 141 115.084 140.159C114.892 140.072 114.722 139.942 114.587 139.779C114.424 139.561 114.308 139.312 114.247 139.047C113.861 137.634 114.208 135.777 115.607 135.031C115.835 134.871 116.111 134.793 116.39 134.811C116.668 134.829 116.932 134.941 117.137 135.129C117.271 135.308 117.356 135.517 117.386 135.738C117.51 136.635 117.355 137.548 116.941 138.354C116.64 138.951 116.239 139.492 115.758 139.956H115.875C116.389 139.982 116.902 139.892 117.376 139.692C117.851 139.493 118.274 139.19 118.616 138.805C119.304 138.013 119.709 137.014 119.767 135.967C119.767 135.944 119.773 135.922 119.783 135.901C119.792 135.881 119.806 135.863 119.824 135.848C119.841 135.833 119.861 135.822 119.883 135.815C119.904 135.809 119.927 135.807 119.95 135.81C119.995 135.813 120.038 135.834 120.068 135.868C120.099 135.902 120.115 135.947 120.113 135.993C120.048 137.118 119.611 138.19 118.871 139.04C118.495 139.466 118.028 139.8 117.505 140.019C116.982 140.238 116.415 140.335 115.849 140.303C115.715 140.289 115.582 140.267 115.45 140.237C114.364 141.208 112.981 141.782 111.526 141.866L111.539 141.918ZM116.412 135.149C116.183 135.149 115.958 135.208 115.758 135.319C114.528 135.973 114.227 137.693 114.567 138.942C114.616 139.16 114.71 139.365 114.842 139.544C114.977 139.707 115.157 139.827 115.359 139.891C115.877 139.405 116.303 138.829 116.614 138.19C116.997 137.45 117.143 136.61 117.033 135.783C117.015 135.623 116.956 135.47 116.863 135.339C116.805 135.278 116.734 135.23 116.657 135.197C116.579 135.164 116.496 135.148 116.412 135.149Z" fill="white"/>
<path d="M126.582 149.112H126.517C125.458 148.733 124.552 148.016 123.94 147.072C123.633 146.591 123.441 146.046 123.377 145.479C123.314 144.912 123.381 144.338 123.574 143.802C123.622 143.676 123.679 143.553 123.744 143.435C123.118 142.129 122.952 140.649 123.273 139.237C123.278 139.215 123.288 139.194 123.302 139.176C123.315 139.157 123.332 139.142 123.351 139.13C123.371 139.119 123.393 139.111 123.415 139.108C123.438 139.105 123.46 139.106 123.482 139.112C123.504 139.117 123.525 139.126 123.543 139.139C123.561 139.152 123.576 139.168 123.588 139.187C123.6 139.206 123.607 139.227 123.611 139.249C123.614 139.271 123.612 139.294 123.607 139.315C123.32 140.589 123.45 141.921 123.979 143.115C124.117 142.954 124.289 142.826 124.483 142.742C124.738 142.648 125.01 142.608 125.281 142.624C126.739 142.624 128.407 143.488 128.76 145.044C128.848 145.309 128.844 145.597 128.748 145.859C128.651 146.122 128.469 146.344 128.23 146.489C128.023 146.573 127.797 146.598 127.576 146.561C126.68 146.433 125.845 146.028 125.189 145.404C124.688 144.946 124.266 144.41 123.94 143.815C123.94 143.854 123.94 143.893 123.894 143.926C123.728 144.412 123.672 144.929 123.73 145.439C123.789 145.949 123.961 146.44 124.234 146.875C124.803 147.758 125.65 148.426 126.641 148.772C126.663 148.779 126.683 148.791 126.7 148.806C126.717 148.822 126.73 148.84 126.74 148.861C126.749 148.882 126.754 148.905 126.754 148.928C126.753 148.951 126.749 148.973 126.739 148.994C126.729 149.028 126.709 149.058 126.68 149.079C126.652 149.101 126.618 149.112 126.582 149.112ZM124.143 143.468C124.468 144.106 124.912 144.676 125.451 145.149C126.053 145.725 126.818 146.102 127.642 146.228C127.802 146.252 127.966 146.236 128.119 146.182C128.459 146.032 128.538 145.528 128.446 145.129C128.139 143.762 126.595 142.997 125.3 142.971C125.078 142.957 124.855 142.99 124.646 143.069C124.443 143.15 124.268 143.289 124.143 143.468Z" fill="white"/>
<path d="M114.169 152.31C114.135 152.309 114.102 152.297 114.074 152.278C114.046 152.258 114.024 152.231 114.012 152.199C113.589 151.16 113.52 150.011 113.815 148.929C113.972 148.383 114.251 147.88 114.63 147.457C115.01 147.035 115.48 146.704 116.006 146.489C116.132 146.442 116.261 146.405 116.392 146.378C116.952 145.041 117.944 143.931 119.211 143.226C119.231 143.21 119.255 143.199 119.28 143.194C119.305 143.188 119.331 143.188 119.356 143.193C119.381 143.199 119.405 143.209 119.425 143.225C119.446 143.24 119.463 143.26 119.475 143.283C119.487 143.306 119.494 143.331 119.495 143.356C119.497 143.382 119.492 143.408 119.483 143.431C119.473 143.455 119.459 143.477 119.44 143.494C119.421 143.512 119.399 143.525 119.374 143.533C118.225 144.162 117.308 145.143 116.758 146.333C116.968 146.331 117.176 146.376 117.367 146.463C117.62 146.585 117.844 146.762 118.021 146.98C118.976 148.092 119.453 149.89 118.524 151.192C118.377 151.432 118.153 151.615 117.888 151.713C117.623 151.81 117.334 151.815 117.066 151.728C116.869 151.623 116.703 151.47 116.582 151.283C116.083 150.528 115.832 149.637 115.862 148.733C115.869 148.064 115.986 147.401 116.209 146.771L116.098 146.81C115.626 147.01 115.206 147.313 114.866 147.697C114.527 148.08 114.277 148.535 114.136 149.027C113.859 150.037 113.923 151.111 114.319 152.081C114.327 152.102 114.332 152.125 114.331 152.147C114.331 152.17 114.326 152.192 114.317 152.213C114.308 152.234 114.294 152.252 114.278 152.268C114.262 152.283 114.242 152.296 114.221 152.304L114.169 152.31ZM116.634 146.673C116.376 147.336 116.241 148.041 116.235 148.752C116.204 149.584 116.432 150.405 116.889 151.1C116.974 151.237 117.094 151.35 117.236 151.427C117.576 151.584 117.995 151.316 118.243 150.976C119.054 149.831 118.603 148.177 117.759 147.189C117.62 147.014 117.446 146.869 117.249 146.764C117.056 146.679 116.844 146.647 116.634 146.673Z" fill="white"/>
<path d="M113.357 163.801C112.234 163.747 111.162 163.318 110.31 162.584C109.877 162.215 109.534 161.751 109.307 161.228C109.08 160.706 108.976 160.138 109.002 159.569C109.013 159.435 109.032 159.302 109.061 159.171C108.085 158.085 107.505 156.703 107.413 155.247C107.411 155.224 107.414 155.201 107.421 155.18C107.429 155.159 107.44 155.139 107.456 155.122C107.471 155.106 107.49 155.093 107.51 155.084C107.531 155.075 107.554 155.07 107.576 155.07C107.622 155.068 107.667 155.084 107.701 155.115C107.735 155.145 107.756 155.188 107.759 155.233C107.849 156.533 108.35 157.77 109.192 158.765C109.278 158.573 109.408 158.403 109.571 158.268C109.789 158.104 110.038 157.986 110.303 157.921C111.709 157.536 113.541 157.869 114.325 159.229C114.486 159.458 114.565 159.735 114.548 160.014C114.532 160.293 114.421 160.558 114.234 160.766C114.055 160.899 113.846 160.987 113.626 161.021C112.729 161.147 111.816 160.994 111.01 160.583C110.4 160.29 109.844 159.899 109.362 159.426C109.358 159.465 109.358 159.504 109.362 159.543C109.332 160.065 109.422 160.586 109.624 161.067C109.825 161.549 110.134 161.978 110.526 162.323C111.322 163.006 112.323 163.406 113.371 163.461C113.393 163.462 113.416 163.467 113.436 163.477C113.456 163.487 113.475 163.501 113.489 163.518C113.504 163.535 113.515 163.555 113.522 163.577C113.528 163.599 113.53 163.621 113.528 163.644C113.527 163.665 113.522 163.686 113.513 163.706C113.504 163.726 113.491 163.743 113.475 163.758C113.459 163.772 113.441 163.784 113.421 163.791C113.4 163.798 113.379 163.802 113.357 163.801ZM109.433 159.079C109.924 159.596 110.505 160.019 111.147 160.328C111.889 160.706 112.729 160.848 113.554 160.734C113.714 160.712 113.867 160.651 113.998 160.557C114.28 160.315 114.214 159.818 113.998 159.452C113.312 158.229 111.618 157.934 110.369 158.281C110.15 158.333 109.944 158.426 109.76 158.556C109.619 158.703 109.516 158.883 109.46 159.079H109.433Z" fill="white"/>
<path d="M107.949 148.772C106.826 148.712 105.754 148.282 104.901 147.549C104.468 147.179 104.124 146.716 103.898 146.193C103.671 145.671 103.567 145.103 103.593 144.534C103.605 144.4 103.625 144.267 103.652 144.135C102.683 143.059 102.103 141.689 102.004 140.244C102.002 140.198 102.018 140.153 102.049 140.119C102.079 140.085 102.122 140.064 102.168 140.061C102.213 140.06 102.257 140.077 102.291 140.107C102.324 140.137 102.346 140.179 102.351 140.224C102.439 141.526 102.941 142.766 103.783 143.762C103.871 143.569 104.001 143.397 104.162 143.259C104.38 143.096 104.63 142.98 104.895 142.919C106.301 142.526 108.165 142.86 108.917 144.227C109.078 144.455 109.156 144.732 109.14 145.011C109.123 145.29 109.012 145.556 108.825 145.764C108.647 145.897 108.438 145.982 108.217 146.012C107.321 146.144 106.407 145.993 105.601 145.58C104.99 145.288 104.433 144.894 103.953 144.416C103.95 144.456 103.95 144.495 103.953 144.534C103.931 145.048 104.024 145.56 104.225 146.033C104.427 146.506 104.731 146.928 105.117 147.268C105.913 147.951 106.914 148.349 107.962 148.399C108.008 148.403 108.05 148.424 108.081 148.458C108.111 148.492 108.127 148.537 108.125 148.582C108.127 148.607 108.124 148.631 108.116 148.654C108.108 148.677 108.095 148.698 108.079 148.716C108.062 148.734 108.042 148.748 108.02 148.757C107.997 148.767 107.973 148.772 107.949 148.772ZM104.025 144.044C104.514 144.563 105.095 144.986 105.738 145.293C106.479 145.674 107.32 145.816 108.145 145.698C108.306 145.679 108.46 145.619 108.59 145.522C108.871 145.286 108.806 144.789 108.59 144.423C107.936 143.2 106.209 142.906 104.96 143.252C104.743 143.301 104.538 143.395 104.358 143.527C104.213 143.67 104.107 143.848 104.051 144.044H104.025Z" fill="white"/>
<path d="M139.577 142.487C139.443 142.492 139.309 142.469 139.185 142.418C139.061 142.367 138.949 142.29 138.857 142.193C138.717 142.02 138.626 141.812 138.596 141.591C138.45 140.701 138.583 139.787 138.975 138.975C139.258 138.361 139.64 137.797 140.106 137.307H139.989C139.475 137.296 138.966 137.4 138.498 137.61C138.03 137.821 137.614 138.133 137.281 138.524C136.613 139.332 136.233 140.34 136.202 141.388C136.201 141.411 136.196 141.434 136.186 141.454C136.176 141.475 136.163 141.494 136.145 141.509C136.128 141.524 136.108 141.536 136.087 141.543C136.065 141.551 136.042 141.554 136.019 141.552C135.974 141.548 135.933 141.528 135.902 141.496C135.872 141.463 135.855 141.42 135.855 141.375C135.89 140.249 136.3 139.167 137.02 138.301C137.384 137.867 137.843 137.521 138.36 137.289C138.878 137.056 139.441 136.944 140.008 136.961C140.145 136.972 140.28 136.992 140.414 137.02C141.469 136.026 142.829 135.418 144.272 135.293C144.295 135.291 144.318 135.294 144.34 135.301C144.362 135.309 144.382 135.32 144.399 135.336C144.416 135.351 144.43 135.37 144.44 135.39C144.449 135.411 144.455 135.434 144.456 135.456C144.458 135.501 144.442 135.545 144.413 135.579C144.384 135.613 144.343 135.635 144.299 135.64C142.999 135.748 141.77 136.274 140.793 137.137C140.986 137.223 141.158 137.35 141.297 137.51C141.466 137.723 141.587 137.971 141.65 138.236C142.068 139.636 141.768 141.473 140.394 142.278C140.145 142.417 139.863 142.489 139.577 142.487ZM140.512 137.373C140.006 137.872 139.596 138.459 139.302 139.106C138.942 139.856 138.817 140.697 138.942 141.519C138.968 141.681 139.033 141.834 139.132 141.964C139.374 142.238 139.871 142.167 140.231 141.964C141.441 141.251 141.702 139.551 141.336 138.314C141.281 138.097 141.183 137.892 141.048 137.713C140.903 137.554 140.718 137.437 140.512 137.373Z" fill="white"/>
<path d="M138.746 154.403C138.702 154.401 138.661 154.384 138.629 154.354C138.598 154.324 138.579 154.283 138.575 154.239C138.472 152.939 137.951 151.707 137.091 150.727C137.005 150.92 136.878 151.092 136.718 151.231C136.503 151.398 136.256 151.518 135.992 151.584C134.593 151.996 132.755 151.689 131.95 150.309C131.787 150.082 131.705 149.807 131.718 149.528C131.731 149.249 131.838 148.982 132.022 148.772C132.195 148.631 132.403 148.541 132.624 148.51C133.516 148.365 134.43 148.502 135.24 148.903C135.855 149.188 136.418 149.573 136.908 150.041C136.908 150.001 136.908 149.962 136.908 149.93C136.921 149.415 136.82 148.904 136.612 148.434C136.404 147.963 136.094 147.545 135.704 147.209C134.895 146.541 133.889 146.157 132.84 146.117C132.795 146.117 132.752 146.099 132.72 146.067C132.688 146.035 132.67 145.992 132.67 145.947C132.67 145.902 132.688 145.858 132.72 145.826C132.752 145.795 132.795 145.777 132.84 145.777C133.966 145.813 135.046 146.227 135.907 146.954C136.339 147.32 136.682 147.781 136.908 148.3C137.135 148.819 137.24 149.383 137.215 149.949C137.209 150.083 137.191 150.217 137.163 150.348C138.15 151.408 138.752 152.77 138.87 154.213C138.872 154.236 138.869 154.26 138.861 154.282C138.854 154.304 138.843 154.324 138.827 154.342C138.812 154.36 138.794 154.374 138.773 154.385C138.752 154.395 138.729 154.401 138.706 154.403H138.746ZM133.298 148.792C133.093 148.789 132.889 148.809 132.689 148.85C132.53 148.871 132.378 148.934 132.251 149.034C131.97 149.276 132.042 149.773 132.251 150.132C132.958 151.349 134.658 151.617 135.894 151.251C136.111 151.198 136.316 151.102 136.496 150.969C136.65 150.827 136.765 150.646 136.829 150.446C136.335 149.933 135.75 149.516 135.103 149.217C134.538 148.95 133.923 148.805 133.298 148.792Z" fill="white"/>
<path d="M133.683 163.827C133.563 163.831 133.442 163.811 133.33 163.767C133.218 163.723 133.115 163.657 133.029 163.572C132.877 163.408 132.771 163.208 132.722 162.99C132.523 162.117 132.596 161.204 132.931 160.374C133.169 159.739 133.512 159.149 133.945 158.628H133.827C133.314 158.649 132.812 158.786 132.359 159.028C131.906 159.271 131.514 159.612 131.211 160.027C130.6 160.879 130.289 161.91 130.328 162.957C130.33 162.98 130.327 163.003 130.319 163.025C130.311 163.047 130.299 163.067 130.283 163.084C130.267 163.1 130.247 163.114 130.226 163.122C130.204 163.131 130.181 163.135 130.158 163.134C130.113 163.134 130.07 163.116 130.038 163.084C130.006 163.052 129.988 163.009 129.988 162.964C129.945 161.839 130.279 160.732 130.936 159.818C131.271 159.36 131.704 158.983 132.205 158.717C132.706 158.451 133.26 158.302 133.827 158.281C133.962 158.272 134.098 158.272 134.233 158.281C135.222 157.226 136.537 156.535 137.967 156.319C137.989 156.316 138.012 156.317 138.034 156.323C138.055 156.329 138.076 156.339 138.094 156.353C138.112 156.366 138.127 156.383 138.138 156.403C138.149 156.422 138.157 156.444 138.16 156.466C138.163 156.489 138.161 156.511 138.156 156.533C138.15 156.555 138.14 156.575 138.126 156.593C138.113 156.611 138.095 156.626 138.076 156.637C138.056 156.649 138.035 156.656 138.013 156.659C136.725 156.859 135.535 157.466 134.618 158.392C134.817 158.464 134.997 158.578 135.148 158.726C135.329 158.932 135.467 159.172 135.554 159.432C136.064 160.799 135.894 162.65 134.573 163.552C134.309 163.727 134 163.822 133.683 163.827ZM134.337 158.654C133.865 159.187 133.493 159.8 133.238 160.465C132.924 161.237 132.855 162.086 133.042 162.898C133.076 163.058 133.151 163.207 133.258 163.33C133.426 163.437 133.623 163.487 133.822 163.471C134.02 163.456 134.208 163.376 134.357 163.245C135.514 162.454 135.665 160.74 135.207 159.53C135.141 159.315 135.029 159.116 134.88 158.948C134.732 158.806 134.549 158.705 134.35 158.654H134.337Z" fill="white"/>
<path d="M120.06 166.07C120.025 166.07 119.991 166.059 119.962 166.04C119.933 166.02 119.91 165.992 119.897 165.959C119.889 165.938 119.884 165.916 119.885 165.893C119.885 165.87 119.89 165.848 119.899 165.827C119.908 165.806 119.922 165.788 119.938 165.772C119.954 165.757 119.974 165.745 119.995 165.737C121.203 165.244 122.219 164.375 122.892 163.258C122.684 163.234 122.483 163.165 122.304 163.055C122.078 162.902 121.886 162.704 121.741 162.473C120.93 161.257 120.669 159.412 121.741 158.235C121.838 158.06 121.982 157.915 122.156 157.817C122.331 157.72 122.53 157.674 122.73 157.684C122.93 157.694 123.123 157.76 123.287 157.875C123.451 157.99 123.579 158.149 123.657 158.333C124.064 159.141 124.208 160.056 124.069 160.949C123.99 161.631 123.795 162.295 123.494 162.911H123.605C124.099 162.771 124.555 162.522 124.94 162.183C125.324 161.843 125.628 161.422 125.829 160.949C126.227 159.977 126.29 158.9 126.005 157.889C125.995 157.844 126.002 157.798 126.026 157.759C126.049 157.72 126.086 157.692 126.13 157.679C126.151 157.674 126.174 157.672 126.197 157.675C126.219 157.678 126.241 157.686 126.26 157.697C126.28 157.709 126.297 157.724 126.31 157.743C126.324 157.761 126.333 157.782 126.339 157.804C126.638 158.885 126.572 160.034 126.149 161.074C125.93 161.597 125.594 162.063 125.168 162.438C124.742 162.813 124.237 163.087 123.69 163.238C123.56 163.274 123.426 163.298 123.291 163.31C122.578 164.571 121.461 165.555 120.119 166.103L120.06 166.07ZM122.775 158.059C122.472 158.086 122.192 158.232 121.996 158.464C121.055 159.504 121.342 161.204 122.029 162.277C122.148 162.469 122.303 162.636 122.487 162.767C122.669 162.874 122.877 162.928 123.088 162.924C123.428 162.299 123.65 161.616 123.742 160.91C123.868 160.087 123.738 159.244 123.37 158.497C123.297 158.352 123.192 158.227 123.062 158.131C122.976 158.079 122.875 158.054 122.775 158.059Z" fill="white"/>
<path d="M132.853 139.047C132.83 139.042 132.809 139.033 132.79 139.02C132.771 139.007 132.755 138.99 132.742 138.97C132.73 138.951 132.722 138.929 132.719 138.906C132.715 138.883 132.716 138.86 132.722 138.838C132.975 137.558 132.813 136.231 132.258 135.051C132.124 135.216 131.954 135.348 131.761 135.437C131.508 135.539 131.235 135.586 130.963 135.574C129.504 135.574 127.837 134.776 127.451 133.239C127.356 132.977 127.352 132.689 127.441 132.425C127.531 132.16 127.707 131.933 127.941 131.781C128.148 131.697 128.374 131.668 128.595 131.696C129.495 131.807 130.34 132.19 131.015 132.795C131.534 133.238 131.976 133.764 132.323 134.351L132.362 134.24C132.519 133.75 132.563 133.231 132.492 132.722C132.421 132.212 132.235 131.725 131.95 131.297C131.335 130.429 130.446 129.793 129.426 129.492C129.404 129.485 129.384 129.474 129.367 129.46C129.35 129.445 129.335 129.427 129.325 129.407C129.315 129.387 129.308 129.365 129.307 129.343C129.305 129.32 129.308 129.298 129.315 129.276C129.331 129.233 129.363 129.198 129.404 129.177C129.445 129.156 129.493 129.152 129.537 129.165C130.6 129.515 131.519 130.205 132.153 131.127C132.473 131.602 132.679 132.143 132.756 132.71C132.833 133.277 132.779 133.854 132.598 134.397C132.553 134.525 132.498 134.65 132.434 134.77C133.093 136.06 133.296 137.535 133.01 138.955C132.996 138.984 132.973 139.009 132.945 139.025C132.917 139.041 132.885 139.049 132.853 139.047ZM128.36 132.029C128.247 132.028 128.136 132.051 128.033 132.095C127.699 132.252 127.627 132.749 127.732 133.154C128.079 134.508 129.622 135.234 130.91 135.234C131.133 135.238 131.355 135.2 131.564 135.123C131.756 135.031 131.919 134.889 132.035 134.711C131.702 134.086 131.259 133.525 130.727 133.056C130.111 132.496 129.337 132.142 128.51 132.043L128.36 132.029Z" fill="white"/>
<path d="M110.597 137.104H110.558C110.513 137.094 110.474 137.066 110.45 137.026C110.425 136.987 110.417 136.94 110.427 136.895C110.684 135.616 110.521 134.288 109.963 133.109C109.829 133.273 109.659 133.405 109.466 133.494C109.214 133.596 108.945 133.645 108.674 133.638C107.222 133.638 105.555 132.834 105.162 131.297C105.068 131.034 105.066 130.747 105.155 130.483C105.244 130.218 105.419 129.991 105.653 129.839C105.86 129.755 106.085 129.726 106.307 129.754C107.205 129.864 108.047 130.247 108.72 130.852C109.241 131.293 109.683 131.82 110.028 132.409C110.028 132.37 110.061 132.33 110.074 132.298C110.228 131.807 110.27 131.289 110.199 130.78C110.128 130.271 109.944 129.784 109.662 129.355C109.068 128.489 108.206 127.844 107.209 127.517C107.188 127.51 107.168 127.499 107.151 127.485C107.134 127.47 107.12 127.452 107.11 127.432C107.1 127.412 107.095 127.389 107.094 127.367C107.093 127.344 107.097 127.322 107.105 127.301C107.12 127.258 107.15 127.223 107.19 127.202C107.231 127.182 107.277 127.177 107.321 127.19C108.384 127.54 109.302 128.23 109.937 129.152C110.256 129.626 110.463 130.168 110.54 130.735C110.617 131.302 110.563 131.879 110.381 132.422C110.339 132.551 110.285 132.676 110.218 132.795C110.875 134.085 111.08 135.559 110.8 136.98C110.788 137.022 110.76 137.059 110.722 137.082C110.685 137.105 110.64 137.113 110.597 137.104ZM106.098 130.087C105.987 130.086 105.878 130.108 105.777 130.152C105.444 130.309 105.372 130.806 105.476 131.212C105.816 132.566 107.36 133.292 108.648 133.292C108.871 133.295 109.093 133.258 109.302 133.18C109.491 133.087 109.651 132.945 109.766 132.768C109.434 132.143 108.991 131.582 108.458 131.114C107.839 130.555 107.063 130.201 106.235 130.1L106.098 130.087Z" fill="white"/>
</g>
</g>
<path d="M115.89 100.788C116.109 104.906 115.393 109.019 113.797 112.821C115.909 114.783 119.343 117.229 123.914 117.164C128.486 117.099 127.727 114.757 126.53 113.162C123.26 111.513 123.044 109.087 123.849 107.616L115.89 100.788Z" fill="#CE7A63"/>
<path opacity="0.2" d="M123.821 107.622L120.198 105.359C118.53 105.621 117.726 107.746 119.799 109.349C121.212 110.441 123.442 110.873 123.723 110.578C123.506 110.113 123.402 109.602 123.419 109.089C123.436 108.575 123.574 108.073 123.821 107.622Z" fill="black"/>
<path d="M125.248 91.8085C129.905 90.8341 129.126 96.6154 127.916 99.6173C124.862 95.157 125.248 91.8085 125.248 91.8085Z" fill="#263238"/>
<path d="M113.319 97.9561C114.222 103.083 114.503 105.739 117.799 107.485C126.02 111.827 127.884 108.839 128.538 103.561C129.12 98.7867 127.55 91.2003 122.259 89.7615C121.092 89.4499 119.864 89.4376 118.691 89.7255C117.517 90.0135 116.435 90.5925 115.544 91.4091C114.653 92.2257 113.982 93.2535 113.593 94.3978C113.205 95.542 113.11 96.7658 113.319 97.9561Z" fill="#CE7A63"/>
<path d="M114.855 102.181C119.322 103.097 114.541 98.3943 115.574 96.4846C116.607 94.5749 122.225 95.9941 120.616 92.8745C124.979 93.9798 129.02 94.3787 129.903 91.4357C131.211 87.1585 127.039 86.341 124.58 87.5771C122.52 88.617 122.539 88.957 119.459 87.9237C116.379 86.8904 108.727 87.4921 110.682 91.0041C107.203 91.1479 107.203 95.5821 110.081 96.8443C112.958 98.1065 111.487 101.488 114.855 102.181Z" fill="#263238"/>
<path d="M113.92 99.7938C113.883 99.7928 113.848 99.7802 113.818 99.7579C113.789 99.7356 113.768 99.7047 113.757 99.6696C113.75 99.6481 113.747 99.6255 113.749 99.6029C113.75 99.5804 113.757 99.5584 113.767 99.5383C113.777 99.5182 113.792 99.5004 113.809 99.4859C113.826 99.4714 113.846 99.4604 113.868 99.4538L120.826 97.2956C120.87 97.283 120.916 97.2875 120.956 97.3082C120.997 97.3289 121.027 97.3641 121.042 97.4067C121.049 97.4282 121.052 97.4509 121.05 97.4734C121.049 97.4959 121.042 97.5179 121.032 97.538C121.022 97.5581 121.007 97.5759 120.99 97.5904C120.973 97.605 120.953 97.6159 120.931 97.6226L113.972 99.7808L113.92 99.7938Z" fill="white"/>
<path d="M111.475 91.246C109.794 89.8922 107.551 89.5587 107.551 90.3566C107.551 91.1545 110.69 91.0106 110.991 91.5468C111.292 92.0831 111.475 91.246 111.475 91.246Z" fill="#263238"/>
<path d="M125.953 103.489C123.953 103.188 121.933 103.032 119.91 103.025C120.42 104.045 121.388 104.895 123.671 104.954C125.953 105.013 125.953 103.489 125.953 103.489Z" fill="white"/>
<path d="M111.769 101.919C112.29 103.004 113.201 103.852 114.32 104.293C115.745 104.81 116.426 103.404 116.007 101.867C115.621 100.487 114.424 98.5512 113.005 98.7082C111.586 98.8652 111.095 100.533 111.769 101.919Z" fill="#CE7A63"/>
<path d="M122.024 98.0411C122.089 98.4792 122.377 98.7932 122.678 98.7474C122.979 98.7016 123.142 98.3092 123.077 97.871C123.012 97.4328 122.724 97.1189 122.423 97.1647C122.122 97.2105 121.959 97.6029 122.024 98.0411Z" fill="#263238"/>
<path d="M126.764 97.9365C126.83 98.3747 127.111 98.6951 127.418 98.6494C127.726 98.6036 127.883 98.2112 127.817 97.773C127.752 97.3348 127.464 97.0144 127.163 97.0601C126.863 97.1059 126.693 97.4983 126.764 97.9365Z" fill="#263238"/>
<path d="M120.245 96.9293C120.2 96.9239 120.158 96.9083 120.121 96.8835C120.064 96.845 120.024 96.7857 120.011 96.7184C119.997 96.6511 120.011 96.5813 120.049 96.5238C120.274 96.1738 120.58 95.8826 120.94 95.6744C121.301 95.4662 121.706 95.3471 122.122 95.327C122.191 95.327 122.258 95.3546 122.307 95.4036C122.356 95.4527 122.383 95.5193 122.383 95.5886C122.383 95.658 122.356 95.7245 122.307 95.7736C122.258 95.8227 122.191 95.8502 122.122 95.8502C121.794 95.8714 121.476 95.9695 121.193 96.1365C120.91 96.3035 120.67 96.5348 120.493 96.8116C120.468 96.8535 120.431 96.887 120.387 96.908C120.343 96.9289 120.293 96.9363 120.245 96.9293Z" fill="#263238"/>
<path d="M128.087 95.484C128.045 95.4923 128.001 95.49 127.96 95.4775C127.919 95.4649 127.882 95.4425 127.852 95.4121C127.632 95.1707 127.357 94.9853 127.051 94.8716C126.745 94.7578 126.416 94.7189 126.092 94.7581C126.058 94.7647 126.023 94.7645 125.99 94.7576C125.956 94.7506 125.924 94.737 125.895 94.7176C125.866 94.6981 125.842 94.6732 125.823 94.6442C125.804 94.6152 125.791 94.5828 125.785 94.5488C125.773 94.4812 125.789 94.4119 125.828 94.3556C125.867 94.2993 125.927 94.2607 125.994 94.2479C126.403 94.1895 126.819 94.2317 127.208 94.3707C127.597 94.5098 127.946 94.7415 128.224 95.0458C128.272 95.0947 128.299 95.1605 128.299 95.2289C128.299 95.2974 128.272 95.3632 128.224 95.4121C128.188 95.4505 128.139 95.4757 128.087 95.484Z" fill="#263238"/>
<path d="M127.295 101.049C127.131 101.045 126.97 101.006 126.822 100.935C126.675 100.864 126.544 100.763 126.438 100.637C125.815 99.7518 125.558 98.6604 125.719 97.5898C125.882 95.667 126.811 94.1628 127.844 94.1628C128.008 94.1661 128.169 94.2046 128.317 94.2757C128.465 94.3468 128.596 94.4488 128.701 94.5749C129.323 95.4582 129.581 96.5475 129.42 97.616C129.257 99.5387 128.328 101.049 127.295 101.049ZM127.844 94.5095C127.02 94.5095 126.203 95.9352 126.065 97.6225C125.925 98.6004 126.158 99.5953 126.719 100.409C126.795 100.498 126.887 100.571 126.992 100.622C127.097 100.674 127.211 100.704 127.327 100.709C128.151 100.709 128.969 99.2837 129.106 97.5963C129.25 96.6204 129.016 95.6262 128.452 94.8168C128.38 94.7233 128.288 94.6468 128.183 94.5926C128.078 94.5384 127.962 94.5077 127.844 94.5029V94.5095Z" fill="white"/>
<path d="M125.412 97.9561C126.078 99.2443 126.921 100.433 127.917 101.488C127.638 101.739 127.309 101.927 126.951 102.04C126.594 102.153 126.216 102.188 125.844 102.142L125.412 97.9561Z" fill="#BA4D3C"/>
<path d="M109.872 124.737L108.159 126.523L106.413 128.367C105.262 129.597 104.137 130.846 103.051 132.082C102.515 132.703 101.992 133.331 101.494 133.959C100.997 134.587 100.5 135.195 100.056 135.81C99.611 136.424 99.2186 137.033 98.8785 137.589C98.6129 138.022 98.379 138.475 98.1787 138.942L98.2964 138.053C98.2376 137.929 98.231 138.295 98.2964 138.707C98.4018 139.245 98.555 139.772 98.7542 140.283C99.2224 141.53 99.764 142.749 100.376 143.932C100.997 145.195 101.684 146.457 102.39 147.739L104.523 151.571L104.562 151.643C104.84 152.169 104.931 152.775 104.819 153.36C104.706 153.945 104.398 154.474 103.944 154.859C103.491 155.245 102.919 155.465 102.324 155.482C101.728 155.498 101.145 155.312 100.67 154.952C99.4283 153.958 98.2427 152.894 97.1192 151.767C95.9943 150.649 94.9152 149.478 93.8492 148.223C92.7727 146.914 91.7976 145.526 90.9324 144.07C90.4466 143.231 90.0247 142.356 89.6702 141.454C89.1938 140.261 88.941 138.991 88.9246 137.706C88.9201 137.511 88.9354 137.316 88.9704 137.124L89.0358 136.817C89.3016 135.572 89.7052 134.362 90.2391 133.207C90.6859 132.241 91.1882 131.302 91.7433 130.395C92.7516 128.717 93.8657 127.104 95.0787 125.568C96.2363 124.057 97.4593 122.638 98.7084 121.258C99.3624 120.571 99.9641 119.885 100.625 119.224C101.285 118.564 101.933 117.916 102.665 117.262C103.654 116.37 104.949 115.894 106.281 115.932C107.612 115.971 108.877 116.522 109.813 117.47C110.748 118.418 111.282 119.691 111.303 121.022C111.324 122.354 110.83 123.643 109.925 124.62L109.872 124.737Z" fill="#CF7A64"/>
<path d="M101.168 150.086L106.962 150.171L104.922 156.816C104.922 156.816 99.6898 156.103 99.6113 153.258L101.168 150.086Z" fill="#CE7A63"/>
<path d="M111.18 154.455L110.068 156.659C109.856 157.087 109.499 157.424 109.06 157.611C108.621 157.798 108.13 157.822 107.675 157.679L104.908 156.816L106.949 150.171L110.219 151.741C110.463 151.853 110.682 152.013 110.863 152.211C111.044 152.409 111.183 152.642 111.273 152.895C111.362 153.148 111.4 153.416 111.384 153.684C111.369 153.952 111.299 154.214 111.18 154.455Z" fill="#CE7A63"/>
<path d="M108.656 113.502C105.785 114.195 102.365 115.333 99.2908 118.734C96.3148 122.252 93.7234 126.077 91.5605 130.146C94.8305 135.81 100.115 136.464 101.534 136.091C106.511 132.742 109.532 131.035 110.932 126.601C112.332 122.167 110.801 116.935 108.656 113.502Z" fill="#263238"/>
<path d="M122.297 101.049C122.133 101.045 121.971 101.006 121.822 100.935C121.673 100.864 121.541 100.763 121.434 100.637C120.812 99.7518 120.554 98.6604 120.715 97.5898C120.878 95.667 121.807 94.1628 122.84 94.1628C123.005 94.166 123.168 94.2045 123.316 94.2755C123.465 94.3466 123.597 94.4486 123.703 94.5749C124.327 95.4575 124.583 96.5481 124.416 97.616C124.259 99.5387 123.298 101.049 122.297 101.049ZM122.84 94.5095C122.016 94.5095 121.205 95.9352 121.061 97.6225C120.921 98.6004 121.154 99.5953 121.715 100.409C121.79 100.499 121.882 100.572 121.987 100.624C122.092 100.676 122.207 100.705 122.324 100.709C123.148 100.709 123.959 99.2837 124.102 97.5963C124.241 96.6206 124.008 95.6283 123.448 94.8168C123.373 94.7207 123.276 94.6426 123.167 94.5883C123.057 94.534 122.936 94.5048 122.814 94.5029L122.84 94.5095Z" fill="white"/>
<path d="M125.889 97.7795C125.855 97.7795 125.822 97.7695 125.794 97.7509C125.766 97.7323 125.745 97.7058 125.732 97.6748C125.718 97.6398 125.697 97.6081 125.67 97.5821C125.643 97.5561 125.61 97.5364 125.575 97.5244C125.125 97.4694 124.669 97.5514 124.267 97.7599C124.246 97.7697 124.224 97.7753 124.201 97.7763C124.178 97.7773 124.156 97.7737 124.134 97.7658C124.113 97.7579 124.093 97.7457 124.077 97.7301C124.06 97.7145 124.047 97.6957 124.038 97.6748C124.02 97.6331 124.019 97.586 124.034 97.5433C124.05 97.5007 124.082 97.4658 124.123 97.4459C124.601 97.2023 125.144 97.1175 125.673 97.204C125.829 97.2657 125.956 97.3851 126.026 97.5375C126.042 97.5793 126.041 97.6254 126.024 97.6667C126.007 97.7079 125.975 97.7412 125.935 97.7599C125.92 97.7689 125.905 97.7755 125.889 97.7795Z" fill="white"/>
<path d="M218.932 112.416C224.053 106.53 221.411 100.101 215.662 96.5566C209.914 93.0119 203.197 95.6017 200.62 101.612C198.043 107.622 198.959 109.179 197.35 109.506C196.618 112.671 198.887 115.993 201.516 114.241C205.493 115.922 212.464 119.846 218.932 112.416Z" fill="#263238"/>
<path d="M211.895 117.184C209.083 117.184 206.598 115.961 204.78 115.065L203.969 114.666L204.23 114.116C204.485 114.234 204.76 114.371 205.048 114.515C208.514 116.222 213.746 118.799 219.331 112.992C221.391 110.846 222.346 108.414 222.104 106.033C221.843 103.482 220.208 100.997 217.618 99.2183L217.964 98.7147C220.705 100.598 222.431 103.24 222.712 105.974C222.974 108.59 221.96 111.141 219.776 113.41C217.042 116.262 214.348 117.184 211.895 117.184Z" fill="#263238"/>
<path d="M200.057 103.986C198.952 100.114 200.214 92.2532 209.867 92.2467C219.52 92.2402 223.601 99.0679 219.579 104.732C207.931 107.367 200.057 103.986 200.057 103.986Z" fill="#263238"/>
<path d="M196.068 111.769C190.058 113.351 195.264 123.371 201.169 118.799C199.861 118.707 196.984 115.817 199.207 113.946C196.853 111.893 196.068 111.769 196.068 111.769Z" fill="#263238"/>
<path d="M196.147 120.715C195.591 120.715 195.043 120.585 194.545 120.336C193.691 119.844 192.996 119.116 192.545 118.239C192.093 117.362 191.905 116.373 192.001 115.392C192.078 114.57 192.417 113.795 192.966 113.18C193.516 112.564 194.248 112.141 195.055 111.971L195.206 112.566C194.513 112.695 193.882 113.047 193.409 113.569C192.936 114.092 192.648 114.755 192.59 115.457C192.502 116.314 192.663 117.179 193.054 117.947C193.445 118.714 194.049 119.353 194.794 119.787C196.069 120.441 197.547 120.081 198.947 118.799L199.359 119.257C198.512 120.133 197.364 120.655 196.147 120.715Z" fill="#263238"/>
<path d="M200.777 114.62C199.234 114.3 196.853 110.297 197.834 109.342C197.238 109.365 196.665 109.576 196.195 109.943C195.726 110.311 195.384 110.817 195.218 111.389C194.819 112.625 195.61 114.941 198.37 115.634C199.711 115.987 200.777 114.62 200.777 114.62Z" fill="#407BFF"/>
<path d="M201.072 131.127C201.026 132.625 200.915 134.103 200.824 135.587L200.444 140.035C200.314 141.526 200.13 143.01 199.947 144.514C199.849 145.26 199.738 146.019 199.601 146.803C199.465 147.647 199.271 148.479 199.019 149.295C198.015 152.268 196.684 155.119 195.049 157.797C193.513 160.407 191.807 162.913 189.941 165.299C189.73 165.589 189.416 165.787 189.063 165.854C188.71 165.922 188.346 165.852 188.042 165.659C187.739 165.467 187.521 165.167 187.431 164.819C187.342 164.471 187.388 164.103 187.561 163.788V163.755C188.869 161.178 190.177 158.523 191.328 155.907C191.897 154.599 192.466 153.291 192.95 151.937C193.438 150.656 193.844 149.346 194.166 148.013C194.306 147.401 194.407 146.781 194.467 146.156C194.526 145.502 194.571 144.756 194.611 144.037L194.846 139.662L195.075 135.26C195.173 133.789 195.239 132.317 195.363 130.852C195.405 130.097 195.746 129.389 196.31 128.885C196.874 128.381 197.616 128.122 198.371 128.164C199.127 128.207 199.834 128.548 200.338 129.112C200.842 129.676 201.102 130.417 201.059 131.173L201.072 131.127Z" fill="#FFB573"/>
<path d="M200.633 157.758C200.633 157.758 200.633 192.001 202.713 210.549C202.928 227.958 206.905 267.303 206.905 267.303H211.293C212.039 247.781 217.473 229.561 213.857 212.367C222.306 178.562 218.389 157.804 218.389 157.804L200.633 157.758Z" fill="#FFB573"/>
<path d="M205.42 157.777C205.42 157.777 208.69 199.686 215.282 214.675C222.175 230.437 234.412 261.312 235.622 266.544L239.291 265.57C239.291 265.57 236.864 231.679 225.661 212.524C229.127 165.292 220.397 157.764 220.397 157.764L205.42 157.777Z" fill="#FFB573"/>
<path d="M199.233 122.605C195.551 125.718 194.368 130.787 194.413 134.22C196.617 137.837 203.504 138.955 203.504 138.955C203.504 138.955 204.596 131.892 204.073 128.563C203.55 125.235 201.359 120.807 199.233 122.605Z" fill="#263238"/>
<path d="M196.592 129.106C196.384 127.224 196.906 125.333 198.049 123.823C199.193 122.314 200.872 121.3 202.74 120.99C203.806 120.8 204.931 120.624 206.01 120.486C209.374 120.126 212.759 120.006 216.14 120.127C217.108 120.127 218.057 120.179 218.953 120.238C219.743 120.29 220.515 120.504 221.219 120.867C221.924 121.229 222.546 121.733 223.048 122.346C223.549 122.96 223.919 123.669 224.135 124.432C224.351 125.194 224.408 125.993 224.302 126.778C222.164 140.97 220.895 151.231 222.295 157.451C222.295 157.451 226.716 163.337 228.723 176.887C230.476 188.705 230.031 208.633 231.961 219.339C225.067 224.263 203.185 223.962 199.96 221.085C200.869 199.437 196.442 171.073 199.81 157.974C198.463 150.714 199.195 145.168 198.437 140.767C193.368 137.373 197.161 134.227 196.592 129.106Z" fill="#263238"/>
<path d="M209.339 160.053C205.461 160.053 201.864 159.681 200.281 158.981C199.627 158.693 199.32 158.353 199.359 157.961C199.36 157.936 199.367 157.912 199.378 157.89C199.389 157.868 199.405 157.848 199.424 157.832C199.443 157.816 199.465 157.805 199.488 157.797C199.512 157.79 199.537 157.788 199.562 157.791C199.61 157.797 199.654 157.821 199.686 157.859C199.717 157.896 199.734 157.944 199.732 157.993C199.732 158.275 200.157 158.523 200.431 158.647C204.244 160.328 219.888 160.138 222.399 157.339C222.435 157.304 222.483 157.284 222.533 157.284C222.584 157.284 222.632 157.304 222.667 157.339C222.686 157.356 222.7 157.376 222.71 157.399C222.72 157.421 222.725 157.445 222.725 157.47C222.725 157.495 222.72 157.519 222.71 157.542C222.7 157.564 222.686 157.584 222.667 157.601C221.157 159.269 214.95 160.053 209.339 160.053Z" fill="white"/>
<path d="M209.147 158.719C205.269 158.719 201.672 158.346 200.09 157.653C199.436 157.365 199.128 156.999 199.167 156.626C199.174 156.577 199.199 156.531 199.238 156.5C199.277 156.468 199.327 156.453 199.377 156.456C199.426 156.463 199.471 156.489 199.501 156.528C199.532 156.567 199.546 156.616 199.54 156.666C199.54 156.947 199.965 157.189 200.24 157.32C204.059 159 219.696 158.811 222.214 156.012C222.25 155.978 222.296 155.959 222.345 155.959C222.394 155.959 222.441 155.978 222.476 156.012C222.51 156.047 222.528 156.094 222.528 156.142C222.528 156.191 222.51 156.238 222.476 156.273C220.965 157.934 214.765 158.719 209.147 158.719Z" fill="white"/>
<path opacity="0.2" d="M212.55 202.74C213.145 194.035 212.55 181.001 207.227 173.696C208.626 182.956 212.55 202.74 212.55 202.74Z" fill="black"/>
<path d="M214.472 108.812C214.021 112.082 213.726 118.054 216.133 120.14C211.048 122.408 206.785 126.187 203.923 130.963C200.731 123.684 206.003 120.499 206.003 120.499C209.586 119.505 209.338 116.824 208.56 114.319L214.472 108.812Z" fill="#FFB573"/>
<path opacity="0.2" d="M212.059 111.062L208.561 114.332C208.749 114.913 208.889 115.508 208.979 116.111C210.353 115.863 212.177 114.28 212.249 112.841C212.297 112.242 212.232 111.638 212.059 111.062Z" fill="black"/>
<path d="M215.82 101.586C216.094 106.988 216.323 109.277 213.936 112.279C210.346 116.798 203.681 115.81 201.805 110.565C200.117 105.837 199.954 97.7926 204.944 95.1766C209.934 92.5606 215.538 96.1773 215.82 101.586Z" fill="#FFB573"/>
<path d="M210.744 97.3152C210.338 103.012 216.499 107.91 218.428 105.745C220.358 103.581 215.603 93.4305 210.744 97.3152Z" fill="#263238"/>
<path d="M202.17 96.8574C209.128 102.148 217.245 102.122 216.728 98.2635C216.211 94.4049 206.297 90.9845 202.17 96.8574Z" fill="#263238"/>
<path d="M207.481 103.751C207.533 104.189 207.337 104.568 207.049 104.594C206.762 104.62 206.48 104.287 206.435 103.849C206.389 103.41 206.578 103.038 206.873 103.012C207.167 102.985 207.435 103.332 207.481 103.751Z" fill="#263238"/>
<path d="M202.04 104.326C202.092 104.764 201.896 105.144 201.601 105.17C201.307 105.196 201.039 104.862 200.993 104.424C200.947 103.986 201.137 103.613 201.425 103.587C201.713 103.561 201.994 103.888 202.04 104.326Z" fill="#263238"/>
<path d="M201.556 103.594L200.457 103.391C200.457 103.391 201.098 104.163 201.556 103.594Z" fill="#263238"/>
<path d="M203.759 104.535C203.476 105.569 203.049 106.558 202.49 107.472C202.733 107.611 203.003 107.696 203.282 107.722C203.56 107.748 203.841 107.714 204.106 107.622L203.759 104.535Z" fill="#ED893E"/>
<path d="M217.572 106.484C217.399 106.944 217.128 107.36 216.778 107.705C216.428 108.049 216.007 108.313 215.544 108.479C214.348 108.865 213.661 107.576 213.923 106.229C214.151 105.013 215.047 103.345 216.283 103.554C217.52 103.764 218.056 105.294 217.572 106.484Z" fill="#FFB573"/>
<path d="M208.887 101.566C208.816 101.555 208.75 101.518 208.704 101.462C208.509 101.196 208.255 100.98 207.963 100.829C207.67 100.678 207.346 100.597 207.017 100.592C206.948 100.597 206.879 100.576 206.826 100.532C206.772 100.488 206.738 100.425 206.729 100.356C206.727 100.322 206.731 100.288 206.742 100.256C206.752 100.223 206.77 100.193 206.792 100.168C206.815 100.142 206.842 100.121 206.873 100.107C206.904 100.092 206.937 100.083 206.971 100.082C207.388 100.076 207.801 100.171 208.174 100.358C208.547 100.544 208.87 100.817 209.116 101.154C209.138 101.18 209.154 101.211 209.164 101.243C209.173 101.276 209.176 101.31 209.171 101.344C209.167 101.378 209.156 101.41 209.139 101.439C209.121 101.469 209.098 101.494 209.071 101.514C209.018 101.554 208.953 101.572 208.887 101.566Z" fill="#263238"/>
<path d="M200.418 102.449C200.354 102.472 200.285 102.472 200.222 102.449C200.159 102.422 200.109 102.371 200.082 102.308C200.055 102.245 200.054 102.173 200.078 102.109C200.23 101.729 200.47 101.39 200.78 101.122C201.089 100.853 201.458 100.662 201.857 100.566C201.926 100.554 201.997 100.57 202.054 100.611C202.112 100.651 202.151 100.712 202.164 100.781C202.175 100.847 202.161 100.915 202.123 100.97C202.085 101.025 202.027 101.063 201.961 101.076C201.646 101.156 201.355 101.309 201.112 101.524C200.868 101.739 200.68 102.009 200.562 102.312C200.549 102.344 200.529 102.372 200.504 102.396C200.48 102.42 200.45 102.438 200.418 102.449Z" fill="#263238"/>
<path d="M207.003 103.025L205.904 102.815C205.904 102.815 206.539 103.587 207.003 103.025Z" fill="#263238"/>
<path d="M215.165 149.243L210.842 147.039L209.842 152.5C209.842 152.5 213.334 153.337 215.793 152.31L216.179 151.656C216.277 150.466 216.133 149.969 215.165 149.243Z" fill="#FFB573"/>
<path d="M207.403 148.51L207.298 150.91C207.283 151.257 207.399 151.597 207.623 151.861C207.848 152.126 208.164 152.295 208.508 152.336L209.855 152.5L210.856 147.039L208.678 147.189C208.341 147.215 208.024 147.363 207.789 147.607C207.554 147.85 207.416 148.172 207.403 148.51Z" fill="#FFB573"/>
<path d="M224.321 125.235C225.381 128.223 226.335 131.199 227.192 134.247C228.118 137.332 228.856 140.47 229.403 143.645C229.546 144.536 229.629 145.436 229.651 146.339C229.694 147.571 229.403 148.791 228.808 149.871C228.161 150.967 227.2 151.842 226.048 152.382C225.11 152.816 224.107 153.088 223.079 153.186C221.328 153.336 219.565 153.228 217.847 152.866C217.031 152.719 216.226 152.525 215.433 152.284C214.635 152.061 213.849 151.795 213.079 151.486C212.758 151.359 212.495 151.119 212.338 150.811C212.181 150.503 212.142 150.149 212.228 149.814C212.314 149.48 212.519 149.188 212.804 148.994C213.09 148.8 213.436 148.716 213.779 148.759H213.857C214.557 148.844 215.322 148.935 216.055 148.994C216.787 149.053 217.539 149.079 218.265 149.099C219.637 149.153 221.011 149.032 222.353 148.739C222.87 148.625 223.365 148.426 223.818 148.151C224.077 148.007 224.277 147.775 224.38 147.497C224.48 147.178 224.506 146.84 224.458 146.509C224.397 145.849 224.295 145.194 224.151 144.547C223.863 143.148 223.497 141.683 223.059 140.231C222.621 138.779 222.215 137.307 221.751 135.842C220.829 132.926 219.874 129.956 218.926 127.072C218.681 126.356 218.731 125.572 219.065 124.892C219.398 124.213 219.988 123.694 220.705 123.449C221.421 123.205 222.205 123.255 222.885 123.588C223.564 123.922 224.083 124.512 224.328 125.228L224.321 125.235Z" fill="#FFB573"/>
<path d="M188.005 162.774L183.172 162.388L184.329 167.816C184.329 167.816 187.495 167.313 189.431 165.671C189.648 165.481 189.787 165.218 189.823 164.932C189.856 164.73 189.836 164.523 189.764 164.331C189.66 163.925 189.437 163.56 189.124 163.282C188.81 163.005 188.42 162.828 188.005 162.774Z" fill="#FFB573"/>
<path d="M180.536 165.063L181.36 167.319C181.476 167.646 181.713 167.917 182.021 168.076C182.33 168.235 182.687 168.271 183.021 168.176L184.329 167.816L183.172 162.388L181.21 163.356C180.909 163.51 180.674 163.768 180.55 164.082C180.426 164.397 180.421 164.745 180.536 165.063Z" fill="#FFB573"/>
<path d="M221.05 120.8C224.281 122.161 225.818 124.358 228.486 130.466C227.832 134.652 220.763 138.21 220.763 138.21C220.763 138.21 218.428 132.912 217.656 129.629C216.884 126.346 217.78 119.42 221.05 120.8Z" fill="#263238"/>
<path d="M211.633 267.329C211.604 267.251 211.55 267.184 211.479 267.14C211.408 267.096 211.324 267.078 211.241 267.087L207.16 267.022C206.731 266.993 206.303 267.083 205.924 267.283C204.057 268.45 201.96 269.2 199.776 269.481C198.913 269.612 199.305 271.076 201.346 271.096C204.727 271.135 205.335 270.88 208.219 270.913C210.678 270.913 209.527 271.05 211.489 271.096C211.96 271.096 212.339 270.802 212.281 270.475L211.633 267.329Z" fill="#263238"/>
<path d="M240.017 264.87C239.968 264.802 239.898 264.752 239.818 264.727C239.738 264.702 239.651 264.704 239.572 264.733L235.603 265.707C235.184 265.785 234.796 265.98 234.484 266.27C233.523 267.381 232.195 269.088 229.449 269.5C228.579 269.631 228.971 271.096 231.012 271.116C234.393 271.155 234.818 269.899 237.617 269.2C240.004 268.604 238.925 269.01 240.802 268.546C241.26 268.441 241.554 268.048 241.41 267.748L240.017 264.87Z" fill="#263238"/>
<path d="M205.832 128.132C207.336 127.569 211.568 127.236 213.477 129.015C216.603 127.406 218.31 122.808 217.924 119.996C217.19 119.443 216.285 119.165 215.367 119.211C215.367 119.211 208.402 123.606 205.832 128.132Z" fill="#FAFAFA"/>
<path d="M203.053 128.184C203.053 128.184 202.19 124.509 206.323 120.395C205.826 120.074 204.093 120.689 204.093 120.689C204.093 120.689 199.07 123.534 199.874 129.381C200.741 128.589 201.879 128.161 203.053 128.184Z" fill="#FAFAFA"/>
<path d="M208.854 107.91C209.064 107.711 209.255 107.492 209.423 107.256C209.435 107.241 209.444 107.223 209.448 107.204C209.453 107.185 209.453 107.165 209.449 107.146C209.446 107.127 209.438 107.108 209.426 107.092C209.415 107.076 209.401 107.063 209.384 107.053C209.354 107.027 209.316 107.013 209.276 107.013C209.236 107.013 209.198 107.027 209.168 107.053C208.784 107.573 208.288 108 207.716 108.301C207.144 108.602 206.511 108.77 205.865 108.793C205.843 108.788 205.821 108.789 205.799 108.794C205.777 108.799 205.757 108.809 205.739 108.823C205.722 108.837 205.708 108.855 205.698 108.875C205.689 108.896 205.684 108.918 205.684 108.94C205.684 108.962 205.689 108.985 205.698 109.005C205.708 109.025 205.722 109.043 205.739 109.057C205.757 109.071 205.777 109.081 205.799 109.086C205.821 109.092 205.843 109.092 205.865 109.087C206.971 109.069 208.033 108.65 208.854 107.91Z" fill="#263238"/>
<path d="M151.224 272.221H150.072L145.102 176.521C145.03 175.128 144.426 173.817 143.415 172.856C142.403 171.896 141.062 171.361 139.667 171.361H122.297C120.902 171.361 119.56 171.896 118.547 172.856C117.535 173.816 116.93 175.128 116.856 176.521L111.885 272.221H110.734L115.757 176.462C115.844 174.783 116.57 173.201 117.786 172.039C119.002 170.878 120.616 170.226 122.297 170.217H139.648C141.336 170.216 142.96 170.864 144.184 172.026C145.409 173.188 146.14 174.776 146.227 176.462L151.224 272.221Z" fill="#407BFF"/>
<path opacity="0.7" d="M151.224 272.221H150.072L145.102 176.521C145.03 175.128 144.426 173.817 143.415 172.856C142.403 171.896 141.062 171.361 139.667 171.361H122.297C120.902 171.361 119.56 171.896 118.547 172.856C117.535 173.816 116.93 175.128 116.856 176.521L111.885 272.221H110.734L115.757 176.462C115.844 174.783 116.57 173.201 117.786 172.039C119.002 170.878 120.616 170.226 122.297 170.217H139.648C141.336 170.216 142.96 170.864 144.184 172.026C145.409 173.188 146.14 174.776 146.227 176.462L151.224 272.221Z" fill="white"/>
<path d="M215.936 272.221H214.785L209.815 176.521C209.743 175.128 209.139 173.817 208.127 172.856C207.116 171.896 205.775 171.361 204.38 171.361H187.043C185.647 171.361 184.305 171.896 183.293 172.856C182.28 173.816 181.675 175.128 181.601 176.521L176.631 272.221H175.467L180.45 176.462C180.538 174.774 181.271 173.184 182.498 172.021C183.725 170.859 185.352 170.213 187.043 170.217H204.393C206.081 170.216 207.705 170.864 208.93 172.026C210.154 173.188 210.885 174.776 210.972 176.462L215.936 272.221Z" fill="#407BFF"/>
<path opacity="0.7" d="M215.936 272.221H214.785L209.815 176.521C209.743 175.128 209.139 173.817 208.127 172.856C207.116 171.896 205.775 171.361 204.38 171.361H187.043C185.647 171.361 184.305 171.896 183.293 172.856C182.28 173.816 181.675 175.128 181.601 176.521L176.631 272.221H175.467L180.45 176.462C180.538 174.774 181.271 173.184 182.498 172.021C183.725 170.859 185.352 170.213 187.043 170.217H204.393C206.081 170.216 207.705 170.864 208.93 172.026C210.154 173.188 210.885 174.776 210.972 176.462L215.936 272.221Z" fill="white"/>
<path d="M213.713 166.574H112.611V172.133H213.713V166.574Z" fill="#407BFF"/>
<path opacity="0.3" d="M213.712 166.574H178.736V172.133H213.712V166.574Z" fill="black"/>
<path d="M186.834 165.233H139.256C139.082 165.233 138.916 165.302 138.793 165.425C138.67 165.547 138.602 165.714 138.602 165.887C138.602 166.061 138.67 166.227 138.793 166.35C138.916 166.472 139.082 166.541 139.256 166.541H186.834C187.008 166.541 187.174 166.472 187.297 166.35C187.419 166.227 187.488 166.061 187.488 165.887C187.488 165.714 187.419 165.547 187.297 165.425C187.174 165.302 187.008 165.233 186.834 165.233Z" fill="#407BFF"/>
<path opacity="0.1" d="M186.834 165.233H139.256C139.082 165.233 138.916 165.302 138.793 165.425C138.67 165.547 138.602 165.714 138.602 165.887C138.602 166.061 138.67 166.227 138.793 166.35C138.916 166.472 139.082 166.541 139.256 166.541H186.834C187.008 166.541 187.174 166.472 187.297 166.35C187.419 166.227 187.488 166.061 187.488 165.887C187.488 165.714 187.419 165.547 187.297 165.425C187.174 165.302 187.008 165.233 186.834 165.233Z" fill="white"/>
<path d="M174.871 166.574H136.285C135.923 166.555 135.576 166.424 135.294 166.197C135.011 165.971 134.806 165.661 134.709 165.312L129.281 143.206C129.232 143.059 129.22 142.901 129.245 142.747C129.271 142.594 129.333 142.449 129.427 142.325C129.521 142.2 129.644 142.101 129.785 142.035C129.925 141.968 130.08 141.937 130.236 141.944H168.822C169.185 141.962 169.533 142.094 169.817 142.32C170.101 142.547 170.306 142.857 170.405 143.206L175.833 165.312C175.882 165.46 175.894 165.618 175.868 165.772C175.842 165.926 175.78 166.072 175.685 166.196C175.59 166.32 175.467 166.42 175.325 166.486C175.183 166.551 175.027 166.582 174.871 166.574Z" fill="#407BFF"/>
<path opacity="0.3" d="M174.871 166.574H136.285C135.923 166.555 135.576 166.424 135.294 166.197C135.011 165.971 134.806 165.661 134.709 165.312L129.281 143.206C129.232 143.059 129.22 142.901 129.245 142.747C129.271 142.594 129.333 142.449 129.427 142.325C129.521 142.2 129.644 142.101 129.785 142.035C129.925 141.968 130.08 141.937 130.236 141.944H168.822C169.185 141.962 169.533 142.094 169.817 142.32C170.101 142.547 170.306 142.857 170.405 143.206L175.833 165.312C175.882 165.46 175.894 165.618 175.868 165.772C175.842 165.926 175.78 166.072 175.685 166.196C175.59 166.32 175.467 166.42 175.325 166.486C175.183 166.551 175.027 166.582 174.871 166.574Z" fill="white"/>
<path d="M163.499 159.851H163.44C163.417 159.843 163.395 159.83 163.376 159.813C163.357 159.797 163.342 159.777 163.331 159.754C163.32 159.732 163.314 159.707 163.312 159.682C163.311 159.657 163.314 159.632 163.323 159.609C163.995 157.779 163.962 155.765 163.231 153.958C163.179 154.05 163.12 154.135 163.061 154.22C162.57 154.817 161.867 155.201 161.099 155.292C160.451 155.409 159.783 155.343 159.17 155.103C158.857 154.98 158.572 154.797 158.331 154.563C158.089 154.33 157.897 154.051 157.764 153.742C157.631 153.422 157.583 153.073 157.626 152.729C157.668 152.385 157.799 152.058 158.006 151.78C158.941 150.577 160.857 150.858 161.877 151.519C162.424 151.901 162.873 152.407 163.185 152.997C163.208 152.893 163.223 152.788 163.231 152.683C163.279 152.279 163.235 151.869 163.101 151.485C162.967 151.101 162.748 150.753 162.459 150.466C161.959 150.005 161.37 149.651 160.727 149.426C160.085 149.201 159.404 149.11 158.725 149.158C158.246 149.184 157.773 149.277 157.319 149.432C157.296 149.441 157.271 149.444 157.247 149.442C157.222 149.441 157.198 149.435 157.176 149.424C157.154 149.413 157.135 149.397 157.119 149.379C157.103 149.36 157.091 149.338 157.084 149.315C157.069 149.269 157.072 149.219 157.092 149.175C157.113 149.131 157.15 149.097 157.195 149.079C157.683 148.914 158.191 148.815 158.705 148.785C159.437 148.733 160.172 148.832 160.864 149.076C161.556 149.321 162.19 149.704 162.728 150.204C163.052 150.532 163.299 150.929 163.45 151.364C163.602 151.8 163.654 152.264 163.604 152.722C163.58 152.982 163.527 153.239 163.447 153.487C164.341 155.446 164.425 157.679 163.682 159.7C163.675 159.743 163.652 159.782 163.618 159.809C163.585 159.837 163.543 159.851 163.499 159.851ZM159.889 151.349C159.59 151.328 159.29 151.376 159.012 151.489C158.734 151.603 158.486 151.778 158.287 152.003C158.122 152.227 158.017 152.489 157.984 152.766C157.951 153.042 157.99 153.322 158.097 153.579C158.21 153.842 158.374 154.08 158.58 154.28C158.785 154.48 159.028 154.637 159.294 154.743C159.846 154.955 160.445 155.012 161.027 154.906C161.705 154.832 162.326 154.497 162.76 153.971C162.87 153.828 162.958 153.669 163.022 153.5C162.719 152.833 162.248 152.256 161.655 151.826C161.123 151.503 160.512 151.333 159.889 151.336V151.349Z" fill="white"/>
<path d="M167.319 157.326H158.771L159.667 166.574H166.423L167.319 157.326Z" fill="#407BFF"/>
<path d="M162.911 150.211C162.648 150.213 162.386 150.177 162.133 150.106C162.101 150.096 162.072 150.077 162.05 150.052C162.029 150.026 162.014 149.995 162.008 149.962C161.953 149.495 162.013 149.022 162.184 148.584C162.355 148.146 162.632 147.756 162.989 147.451C163.957 146.77 165.083 146.349 166.259 146.228C166.29 146.225 166.321 146.229 166.349 146.24C166.378 146.252 166.403 146.27 166.423 146.293C166.442 146.315 166.456 146.342 166.462 146.37C166.469 146.399 166.469 146.428 166.462 146.457C166.161 147.611 165.568 148.67 164.742 149.531C164.232 149.968 163.583 150.21 162.911 150.211ZM162.362 149.779C162.738 149.865 163.13 149.861 163.504 149.767C163.879 149.674 164.227 149.495 164.52 149.243C165.237 148.511 165.76 147.612 166.044 146.627C165.03 146.753 164.064 147.129 163.231 147.719C162.939 147.971 162.708 148.286 162.558 148.641C162.407 148.996 162.34 149.381 162.362 149.766V149.779Z" fill="white"/>
<path d="M156.305 154.887C155.656 154.855 155.019 154.699 154.428 154.429C154.412 154.419 154.397 154.406 154.386 154.39C154.375 154.374 154.367 154.356 154.363 154.337C154.36 154.318 154.362 154.298 154.368 154.28C154.375 154.261 154.387 154.245 154.402 154.233C154.95 153.698 155.625 153.313 156.364 153.114C156.665 153.066 156.973 153.093 157.261 153.191C157.55 153.289 157.81 153.456 158.019 153.677C158.029 153.696 158.034 153.717 158.034 153.739C158.034 153.761 158.029 153.782 158.019 153.801C157.892 154.078 157.699 154.319 157.458 154.504C157.216 154.689 156.932 154.811 156.632 154.861C156.524 154.877 156.415 154.886 156.305 154.887ZM154.69 154.285C155.306 154.557 155.98 154.674 156.652 154.625C156.898 154.583 157.132 154.485 157.335 154.339C157.538 154.193 157.705 154.002 157.823 153.782C157.641 153.608 157.422 153.479 157.183 153.404C156.944 153.329 156.69 153.311 156.443 153.35C155.798 153.513 155.205 153.835 154.716 154.285H154.69Z" fill="white"/>
<path d="M67.8074 256.368C67.7611 256.368 67.7164 256.351 67.6824 256.319C67.6484 256.288 67.6276 256.244 67.6243 256.198C66.1005 240.24 68.88 197.652 72.1238 187.149C72.1403 187.102 72.1736 187.064 72.2173 187.041C72.2609 187.017 72.3116 187.012 72.3593 187.024C72.4068 187.039 72.4464 187.073 72.4697 187.117C72.4929 187.161 72.4979 187.212 72.4835 187.26C69.2135 197.724 66.4798 240.234 67.9971 256.165C67.9998 256.19 67.9975 256.215 67.9903 256.238C67.9832 256.262 67.9713 256.284 67.9554 256.303C67.9395 256.322 67.9199 256.337 67.8979 256.349C67.8758 256.36 67.8517 256.366 67.8271 256.368H67.8074Z" fill="#263238"/>
<path d="M74.9941 242.882H59.9521L61.9141 272.221H73.0321L74.9941 242.882Z" fill="#407BFF"/>
<path d="M67.9768 197.933C68.7197 198.741 69.2553 199.717 69.5378 200.778C69.8203 201.838 69.8412 202.951 69.5987 204.022C68.5132 204.187 67.4036 204.088 66.3649 203.731C65.3263 203.375 64.3893 202.772 63.6343 201.975C61.0837 199.228 60.3643 194.081 60.3643 194.081C60.3643 194.081 65.4001 195.186 67.9768 197.933Z" fill="#263238"/>
<path d="M76.8779 212.334C75.6599 213.063 74.2834 213.485 72.8664 213.564C71.4494 213.644 70.0343 213.379 68.7422 212.792C68.8167 211.374 69.2341 209.995 69.9586 208.774C70.683 207.553 71.6929 206.526 72.9016 205.781C77.048 203.263 83.758 203.675 83.758 203.675C83.758 203.675 81.0243 209.816 76.8779 212.334Z" fill="#263238"/>
<path d="M76.0799 186.429C76.0787 186.924 75.9306 187.408 75.6546 187.819C75.3786 188.23 74.987 188.55 74.5292 188.739C74.0713 188.927 73.5679 188.976 73.0825 188.879C72.597 188.781 72.1513 188.542 71.8017 188.192C71.452 187.841 71.2141 187.395 71.118 186.909C71.0218 186.423 71.0718 185.92 71.2616 185.463C71.4514 185.005 71.7724 184.614 72.1842 184.34C72.596 184.065 73.08 183.918 73.5751 183.918C73.9046 183.918 74.2309 183.983 74.5352 184.109C74.8395 184.235 75.1159 184.421 75.3486 184.654C75.5813 184.887 75.7657 185.164 75.8912 185.469C76.0167 185.773 76.0808 186.1 76.0799 186.429Z" fill="#407BFF"/>
<path d="M57.9121 226.984C59.1465 228.307 60.6853 229.309 62.3949 229.903C64.1044 230.497 65.9331 230.665 67.7221 230.391C68.1317 228.634 68.1076 226.804 67.6518 225.058C67.196 223.313 66.3224 221.704 65.1061 220.372C60.9205 215.846 52.582 213.995 52.582 213.995C52.582 213.995 53.7265 222.458 57.9121 226.984Z" fill="#263238"/>
</svg>
