<svg width="357" height="357" viewBox="0 0 357 357" fill="none" xmlns="http://www.w3.org/2000/svg">
<path d="M357 273.034H0V273.212H357V273.034Z" fill="#EBEBEB"/>
<path d="M311.068 284.522H297.58V284.7H311.068V284.522Z" fill="#EBEBEB"/>
<path d="M230.28 283.28H209.238V283.458H230.28V283.28Z" fill="#EBEBEB"/>
<path d="M296.867 277.896H263.23V278.074H296.867V277.896Z" fill="#EBEBEB"/>
<path d="M45.2896 279.095H37.457V279.274H45.2896V279.095Z" fill="#EBEBEB"/>
<path d="M79.1764 279.095H51.6445V279.274H79.1764V279.095Z" fill="#EBEBEB"/>
<path d="M160.757 282.109H122.094V282.287H160.757V282.109Z" fill="#EBEBEB"/>
<path d="M169.217 241.189H31.3582C30.2769 241.189 29.2399 240.76 28.4754 239.995C27.7108 239.231 27.2813 238.194 27.2812 237.112V43.3113C27.2907 42.2362 27.7243 41.2083 28.4879 40.4515C29.2515 39.6946 30.2831 39.27 31.3582 39.27H169.217C170.299 39.27 171.336 39.6996 172.1 40.4641C172.865 41.2287 173.294 42.2657 173.294 43.347V237.112C173.294 238.194 172.865 239.231 172.1 239.995C171.336 240.76 170.299 241.189 169.217 241.189ZM31.3582 39.4128C30.3248 39.4147 29.3344 39.826 28.6037 40.5567C27.873 41.2874 27.4616 42.2779 27.4598 43.3113V237.112C27.4616 238.146 27.873 239.136 28.6037 239.867C29.3344 240.597 30.3248 241.009 31.3582 241.011H169.217C170.251 241.009 171.241 240.597 171.972 239.867C172.703 239.136 173.114 238.146 173.116 237.112V43.3113C173.114 42.2779 172.703 41.2874 171.972 40.5567C171.241 39.826 170.251 39.4147 169.217 39.4128H31.3582Z" fill="#EBEBEB"/>
<path d="M323.663 241.189H185.79C184.709 241.187 183.673 240.757 182.909 239.993C182.145 239.229 181.715 238.193 181.713 237.112V43.3113C181.724 42.2368 182.158 41.21 182.922 40.4535C183.685 39.6971 184.715 39.2718 185.79 39.27H323.663C324.736 39.2737 325.764 39.7 326.524 40.4565C327.285 41.213 327.717 42.2387 327.726 43.3113V237.112C327.726 238.191 327.298 239.226 326.537 239.99C325.775 240.754 324.742 241.185 323.663 241.189ZM185.79 39.4128C184.756 39.4147 183.766 39.826 183.035 40.5567C182.305 41.2874 181.893 42.2779 181.891 43.3113V237.112C181.893 238.146 182.305 239.136 183.035 239.867C183.766 240.597 184.756 241.009 185.79 241.011H323.663C324.697 241.009 325.687 240.597 326.418 239.867C327.148 239.136 327.56 238.146 327.562 237.112V43.3113C327.56 42.2779 327.148 41.2874 326.418 40.5567C325.687 39.826 324.697 39.4147 323.663 39.4128H185.79Z" fill="#EBEBEB"/>
<path d="M311.068 284.522H297.58V284.7H311.068V284.522Z" fill="#EBEBEB"/>
<path d="M230.28 283.28H209.238V283.458H230.28V283.28Z" fill="#EBEBEB"/>
<path d="M296.867 277.896H263.23V278.074H296.867V277.896Z" fill="#EBEBEB"/>
<path d="M45.2896 279.095H37.457V279.274H45.2896V279.095Z" fill="#EBEBEB"/>
<path d="M79.1764 279.095H51.6445V279.274H79.1764V279.095Z" fill="#EBEBEB"/>
<path d="M160.757 282.109H122.094V282.287H160.757V282.109Z" fill="#EBEBEB"/>
<path d="M140.616 61.1327H98.2188V157.551H140.616V61.1327Z" fill="#E6E6E6"/>
<path d="M143.208 61.1327H100.811V157.551H143.208V61.1327Z" fill="#F5F5F5"/>
<path d="M138.559 153.21V65.4739H105.458V153.21H138.559Z" fill="white"/>
<path d="M138.551 153.21V65.4739H136.594V153.21H138.551Z" fill="#E6E6E6"/>
<path d="M141.279 127.156H102.73V132.982H141.279V127.156Z" fill="#F5F5F5"/>
<path d="M141.279 73.1279H102.73V78.9542H141.279V73.1279Z" fill="#F5F5F5"/>
<path d="M197.778 61.1327H155.381V157.551H197.778V61.1327Z" fill="#E6E6E6"/>
<path d="M200.362 61.1327H157.965V157.551H200.362V61.1327Z" fill="#F5F5F5"/>
<path d="M195.715 153.21V65.4739H162.614V153.21H195.715Z" fill="white"/>
<path d="M195.715 153.21V65.4739H193.758V153.21H195.715Z" fill="#E6E6E6"/>
<path d="M198.441 127.156H159.893V132.982H198.441V127.156Z" fill="#F5F5F5"/>
<path d="M198.441 73.1279H159.893V78.9542H198.441V73.1279Z" fill="#F5F5F5"/>
<path d="M83.452 61.1327H41.0547V157.551H83.452V61.1327Z" fill="#E6E6E6"/>
<path d="M86.0438 61.1327H43.6465V157.551H86.0438V61.1327Z" fill="#F5F5F5"/>
<path d="M81.3965 153.21V65.4739H48.2954L48.2954 153.21H81.3965Z" fill="white"/>
<path d="M81.3887 153.203V65.4667H79.4323V153.203H81.3887Z" fill="#E6E6E6"/>
<path d="M84.1172 127.156H45.5684V132.982H84.1172V127.156Z" fill="#F5F5F5"/>
<path d="M84.1172 73.1279H45.5684V78.9542H84.1172V73.1279Z" fill="#F5F5F5"/>
<path d="M235.064 176.722H228.131V273.034H235.064V176.722Z" fill="#E6E6E6"/>
<path d="M236.92 176.722H232.836V273.034H236.92V176.722Z" fill="#F0F0F0"/>
<path d="M139.737 183.941H238.184V176.715H139.737V183.941Z" fill="#F0F0F0"/>
<path d="M46.4876 176.722H39.5547V273.034H46.4876V176.722Z" fill="#E6E6E6"/>
<path d="M47.7872 176.722H43.7031V273.034H47.7872V176.722Z" fill="#F0F0F0"/>
<path d="M38.3213 183.941H136.768V176.715H38.3213V183.941Z" fill="#E6E6E6"/>
<path d="M139.144 176.722H132.211V273.034H139.144V176.722Z" fill="#E6E6E6"/>
<path d="M141 176.722H136.916V273.034H141V176.722Z" fill="#F0F0F0"/>
<path d="M121.502 144.685H172.91L176.944 175.037H125.543L121.502 144.685Z" fill="#E6E6E6"/>
<path d="M125.543 175.037L125.75 176.715H177.158L176.951 175.037H125.543Z" fill="#E6E6E6"/>
<path d="M123.086 144.685H174.487L178.528 175.037H127.12L123.086 144.685Z" fill="#F0F0F0"/>
<path d="M128.362 173.652L124.699 146.07H173.244L176.914 173.652H128.362Z" fill="white"/>
<path d="M140.516 175.037L140.723 176.715H197.336L197.122 175.037H140.516Z" fill="#F0F0F0"/>
<path d="M233.407 150.654H207.96C203.629 150.615 199.433 152.165 196.167 155.011C192.902 157.857 190.792 161.802 190.239 166.098L186.519 194.208L172.696 194.158H172.653C169.571 194.085 166.578 195.197 164.292 197.266C162.006 199.334 160.6 202.201 160.365 205.275L159.551 214.914C158.211 215.103 156.97 215.728 156.019 216.692C155.068 217.655 154.46 218.905 154.289 220.248H222.555C226.882 220.287 231.075 218.738 234.338 215.895C237.601 213.051 239.708 209.111 240.262 204.818L245.617 164.477C245.821 162.748 245.658 160.996 245.138 159.335C244.619 157.674 243.755 156.141 242.602 154.836C241.45 153.531 240.036 152.485 238.451 151.764C236.867 151.043 235.148 150.665 233.407 150.654ZM173.431 214.814H163.221L163.992 205.946C164.16 203.674 165.195 201.553 166.883 200.022C168.571 198.491 170.782 197.667 173.06 197.721H173.096L186.062 197.764L185.155 204.597C184.788 207.443 183.39 210.055 181.225 211.938C179.06 213.821 176.279 214.845 173.41 214.814H173.431Z" fill="#E0E0E0"/>
<path d="M170.053 220.219H166.512L158.215 273.034H161.756L170.053 220.219Z" fill="#F0F0F0"/>
<path d="M183.347 220.219H179.806L171.502 273.034H175.043L183.347 220.219Z" fill="#F0F0F0"/>
<path d="M214.535 220.219H218.077L226.38 273.034H222.839L214.535 220.219Z" fill="#F0F0F0"/>
<path d="M201.248 220.219H204.79L213.086 273.034H209.545L201.248 220.219Z" fill="#F0F0F0"/>
<path d="M313.882 62.8248H244.846V207.06H313.882V62.8248Z" fill="#E6E6E6"/>
<path d="M318.68 62.8248H246.123V207.06H318.68V62.8248Z" fill="#F0F0F0"/>
<path d="M312.596 200.984V68.9082H252.191V200.984H312.596Z" fill="#FAFAFA"/>
<path d="M273.611 200.984L281.094 68.901H291.19L283.707 200.984H273.611Z" fill="white"/>
<path d="M285.613 200.984L293.096 68.901H303.192L295.709 200.984H285.613Z" fill="white"/>
<path d="M178.5 305.278C254.957 305.278 316.937 301.659 316.937 297.195C316.937 292.732 254.957 289.113 178.5 289.113C102.043 289.113 40.0625 292.732 40.0625 297.195C40.0625 301.659 102.043 305.278 178.5 305.278Z" fill="#F5F5F5"/>
<path d="M171.937 86.8224L160.863 248.536H295.895L308.126 69.8792H190.044L171.937 86.8224Z" fill="#407BFF"/>
<path opacity="0.8" d="M171.937 86.8224L160.863 248.536H295.895L308.126 69.8792H190.044L171.937 86.8224Z" fill="white"/>
<path d="M284.846 124.476C293.942 115.685 294.661 101.672 286.452 93.1765C278.242 84.681 264.212 84.9202 255.116 93.7109C246.019 102.502 245.3 116.515 253.51 125.01C261.719 133.506 275.749 133.267 284.846 124.476Z" fill="#407BFF"/>
<path d="M284.061 123.665C292.678 115.337 293.36 102.062 285.583 94.015C277.806 85.9675 264.516 86.1945 255.898 94.5221C247.281 102.85 246.599 116.124 254.376 124.172C262.153 132.219 275.443 131.992 284.061 123.665Z" fill="white"/>
<mask id="mask0_615_773" style="mask-type:luminance" maskUnits="userSpaceOnUse" x="248" y="88" width="43" height="43">
<path d="M284.061 123.665C292.678 115.337 293.36 102.063 285.583 94.0151C277.806 85.9676 264.516 86.1946 255.898 94.5222C247.281 102.85 246.599 116.125 254.376 124.172C262.153 132.22 275.443 131.992 284.061 123.665Z" fill="white"/>
</mask>
<g mask="url(#mask0_615_773)">
<path d="M264.471 116.382L260.344 116.111C260.344 116.111 258.423 125.992 257.195 126.821C255.517 127.985 252.197 130.798 249.991 131.819C249.763 132.487 249.717 133.204 249.855 133.896C253.283 133.896 259.623 130.484 260.715 128.998C263.221 125.664 264.471 116.382 264.471 116.382Z" fill="#FFC3BD"/>
<path d="M266.442 110.185C267.691 112.512 263.8 120.895 263.8 120.895L258.502 119.238C258.654 116.661 259.251 114.129 260.266 111.755C261.579 109.021 265.071 107.628 266.442 110.185Z" fill="#263238"/>
<path opacity="0.2" d="M262.392 114.469C263.106 116.154 262.171 120.223 261.436 122.801C259.643 119.731 259.393 116.875 262.392 114.469Z" fill="black"/>
<path d="M262.372 110.599C261.558 113.576 259.958 121.394 261.265 133.668H275.209C275.531 131.333 275.124 119.931 278.401 108.928C276.74 108.599 275.058 108.384 273.367 108.285C271.213 108.16 269.053 108.16 266.898 108.285C265.979 108.371 265.068 108.538 264.178 108.785C263.745 108.905 263.351 109.135 263.035 109.453C262.718 109.771 262.489 110.166 262.372 110.599Z" fill="#263238"/>
<path opacity="0.2" d="M274.844 111.641C274.423 113.455 274.587 117.789 275.851 122.801C276.226 118.484 276.974 114.208 278.086 110.02C277.094 109.899 275.244 109.956 274.844 111.641Z" fill="black"/>
<path d="M273.083 102.231C272.483 104.315 272.04 106.893 273.368 108.285C273.368 108.285 272.333 110.427 268.47 110.427C264.936 110.427 266.899 108.285 266.899 108.285C269.27 107.728 269.42 104.858 269.163 103.244L273.083 102.231Z" fill="#FFC3BD"/>
<path d="M268.463 110.392C268.823 110.997 269.015 111.687 269.02 112.391C269.02 112.391 274.018 110.684 274.018 108.178C274.018 108.178 273.368 107.771 272.961 107.464C272.975 107.443 272.64 109.392 268.463 110.392Z" fill="white"/>
<path d="M268.326 110.392C267.876 110.935 267.541 111.564 267.341 112.241C266.752 111.791 266.322 111.164 266.113 110.453C265.903 109.742 265.926 108.983 266.177 108.285C266.592 108.119 267.019 107.985 267.455 107.885C267.455 107.885 266.848 109.856 268.326 110.392Z" fill="white"/>
<path opacity="0.2" d="M269.175 103.244C269.381 104.391 269.265 105.573 268.84 106.657C269.208 106.605 269.566 106.499 269.904 106.343C271.275 105.722 272.01 104.751 272.817 103.316C272.895 102.945 272.995 102.602 273.095 102.231L269.175 103.244Z" fill="black"/>
<path d="M265.784 101.317C265.89 101.633 266.061 101.923 266.286 102.169C266.511 102.415 266.785 102.611 267.091 102.745C267.926 103.102 268.519 102.338 268.469 101.46C268.419 100.581 267.89 99.5246 266.969 99.5388C266.762 99.5488 266.559 99.6074 266.379 99.7098C266.198 99.8123 266.043 99.9557 265.928 100.129C265.813 100.302 265.74 100.499 265.715 100.706C265.69 100.912 265.713 101.121 265.784 101.317Z" fill="#FFC3BD"/>
<path opacity="0.2" d="M265.784 101.317C265.89 101.633 266.061 101.923 266.286 102.169C266.511 102.415 266.785 102.611 267.091 102.745C267.926 103.102 268.519 102.338 268.469 101.46C268.419 100.581 267.89 99.5246 266.969 99.5388C266.762 99.5488 266.559 99.6074 266.379 99.7098C266.198 99.8123 266.043 99.9557 265.928 100.129C265.813 100.302 265.74 100.499 265.715 100.706C265.69 100.912 265.713 101.121 265.784 101.317Z" fill="black"/>
<path d="M269.519 95.4833C269.248 93.8339 266.813 96.7328 267.335 98.2607C267.856 99.7887 269.819 97.3397 269.519 95.4833Z" fill="#263238"/>
<path d="M274.73 99.6674C273.838 102.431 273.452 104.08 271.703 105.265C271.174 105.67 270.539 105.914 269.875 105.969C269.211 106.023 268.546 105.886 267.957 105.573C267.369 105.26 266.883 104.785 266.557 104.204C266.232 103.623 266.08 102.96 266.12 102.295C266.191 99.6817 267.64 95.6047 270.596 94.9621C273.552 94.3195 275.601 96.9042 274.73 99.6674Z" fill="#FFC3BD"/>
<path d="M273.917 98.0323C270.904 97.6039 266.577 97.047 268.148 94.5837C269.64 92.2346 275.595 92.663 273.788 93.7054C276.123 93.8411 279.093 94.9621 276.851 95.7332C278.658 97.0184 277.944 100.46 274.495 101.659C273.503 100.217 272.746 99.5817 273.917 98.0323Z" fill="#263238"/>
<path d="M275.16 102.959C274.651 103.481 273.967 103.796 273.239 103.844C272.297 103.894 272.118 102.995 272.625 102.216C273.132 101.438 274.117 100.645 274.945 100.967C275.774 101.288 275.795 102.302 275.16 102.959Z" fill="#FFC3BD"/>
<path d="M270.398 99.7245C270.34 99.9529 270.176 100.11 270.026 100.089C269.876 100.067 269.812 99.8601 269.876 99.6316C269.941 99.4032 270.098 99.2389 270.241 99.2675C270.383 99.2961 270.462 99.496 270.398 99.7245Z" fill="#263238"/>
<path d="M267.891 99.2818C267.833 99.5103 267.669 99.6745 267.526 99.6459C267.384 99.6174 267.312 99.4174 267.369 99.189C267.426 98.9605 267.591 98.8034 267.741 98.8248C267.891 98.8462 267.955 99.0533 267.891 99.2818Z" fill="#263238"/>
<path d="M268.663 99.5388C268.214 100.187 267.686 100.777 267.092 101.295C267.219 101.433 267.375 101.539 267.55 101.606C267.725 101.673 267.912 101.698 268.099 101.681L268.663 99.5388Z" fill="#ED847E"/>
<path d="M268.583 102.423C268.575 102.422 268.566 102.418 268.559 102.413C268.552 102.409 268.546 102.402 268.541 102.395C268.537 102.388 268.533 102.379 268.532 102.371C268.531 102.362 268.531 102.353 268.533 102.345C268.539 102.327 268.551 102.312 268.566 102.302C268.582 102.292 268.6 102.287 268.619 102.288C268.904 102.338 269.197 102.324 269.477 102.246C269.756 102.168 270.014 102.029 270.232 101.838C270.238 101.832 270.246 101.827 270.254 101.823C270.262 101.82 270.27 101.818 270.279 101.818C270.288 101.818 270.296 101.82 270.304 101.823C270.312 101.827 270.319 101.832 270.325 101.838C270.338 101.851 270.346 101.869 270.346 101.888C270.346 101.907 270.338 101.925 270.325 101.938C270.091 102.146 269.812 102.298 269.51 102.382C269.209 102.467 268.891 102.481 268.583 102.423Z" fill="#263238"/>
<path d="M271.367 99.0247C271.348 99.0218 271.33 99.0136 271.315 99.0011C271.299 98.9885 271.288 98.9719 271.282 98.9533C271.223 98.8021 271.126 98.6683 271.001 98.5647C270.877 98.461 270.727 98.3908 270.568 98.3607C270.551 98.3602 270.534 98.3558 270.519 98.3479C270.503 98.34 270.49 98.3288 270.48 98.3151C270.47 98.3013 270.463 98.2855 270.459 98.2687C270.456 98.2518 270.456 98.2345 270.461 98.2179C270.468 98.182 270.487 98.1498 270.516 98.1275C270.545 98.1051 270.581 98.0941 270.618 98.0965C270.82 98.1261 271.011 98.2074 271.172 98.3325C271.333 98.4576 271.46 98.6222 271.539 98.8105C271.551 98.8447 271.549 98.8821 271.535 98.9153C271.52 98.9484 271.494 98.9748 271.46 98.989C271.448 99.0012 271.434 99.0107 271.418 99.0168C271.402 99.023 271.385 99.0257 271.367 99.0247Z" fill="#263238"/>
<path d="M267.035 98.1751C267.019 98.1811 267.001 98.1811 266.985 98.1751C266.972 98.1631 266.962 98.1487 266.956 98.1327C266.949 98.1168 266.945 98.0996 266.945 98.0823C266.945 98.0649 266.949 98.0478 266.956 98.0318C266.962 98.0159 266.972 98.0015 266.985 97.9895C267.128 97.8212 267.306 97.6871 267.508 97.5969C267.709 97.5067 267.928 97.4627 268.149 97.4682C268.166 97.4708 268.182 97.4768 268.197 97.4858C268.211 97.4948 268.224 97.5066 268.234 97.5206C268.244 97.5346 268.251 97.5504 268.255 97.5672C268.259 97.5839 268.259 97.6013 268.256 97.6182C268.249 97.6554 268.228 97.6886 268.198 97.7111C268.167 97.7337 268.129 97.7438 268.092 97.7396C267.918 97.7374 267.745 97.7741 267.587 97.847C267.429 97.9199 267.289 98.0271 267.178 98.1608C267.158 98.1771 267.134 98.1872 267.108 98.1898C267.083 98.1923 267.057 98.1872 267.035 98.1751Z" fill="#263238"/>
<path d="M279.629 112.748L275.852 114.754C275.852 114.754 279.501 123.751 278.88 125.1C278.03 126.942 276.623 130.991 275.238 132.997C275.401 133.666 275.75 134.274 276.245 134.753C279.272 132.925 282.992 126.749 283.157 124.964C283.528 120.887 279.629 112.748 279.629 112.748Z" fill="#FFC3BD"/>
<path d="M278.401 108.928C281.043 109.392 282.985 118.802 282.985 118.802L276.473 120.666C275.548 118.502 274.782 116.273 274.181 113.997C273.317 110.513 275.602 108.421 278.401 108.928Z" fill="#263238"/>
</g>
<path d="M277.658 229.477C286.755 220.687 287.474 206.673 279.264 198.178C271.054 189.682 257.025 189.922 247.928 198.712C238.831 207.503 238.112 221.516 246.322 230.012C254.532 238.507 268.562 238.268 277.658 229.477Z" fill="#407BFF"/>
<path d="M276.875 228.659C285.492 220.332 286.174 207.057 278.397 199.009C270.62 190.962 257.33 191.189 248.713 199.517C240.095 207.844 239.414 221.119 247.191 229.166C254.967 237.214 268.258 236.987 276.875 228.659Z" fill="white"/>
<mask id="mask1_615_773" style="mask-type:luminance" maskUnits="userSpaceOnUse" x="241" y="193" width="43" height="43">
<path d="M276.875 228.659C285.492 220.332 286.174 207.057 278.397 199.009C270.62 190.962 257.33 191.189 248.713 199.517C240.095 207.844 239.414 221.119 247.191 229.166C254.967 237.214 268.258 236.987 276.875 228.659Z" fill="white"/>
</mask>
<g mask="url(#mask1_615_773)">
<path d="M255.497 221.583L251.62 220.319C251.62 220.319 247.401 229.601 246.023 230.158C244.138 230.872 240.311 232.878 237.947 233.357C237.564 233.964 237.342 234.66 237.305 235.377C240.575 236.22 247.451 234.363 248.857 233.157C252.042 230.415 255.497 221.583 255.497 221.583Z" fill="#FFB573"/>
<path d="M258.874 215.921C259.502 218.52 253.761 225.881 253.761 225.881L249.113 222.939C249.879 220.44 251.059 218.086 252.605 215.978C254.518 213.6 258.181 213.072 258.874 215.921Z" fill="#407BFF"/>
<path opacity="0.3" d="M258.874 215.921C259.502 218.52 253.761 225.881 253.761 225.881L249.113 222.939C249.879 220.44 251.059 218.086 252.605 215.978C254.518 213.6 258.181 213.072 258.874 215.921Z" fill="black"/>
<path opacity="0.2" d="M255.248 219.155C255.683 220.954 255.291 223.832 254.141 226.295C253.12 224.746 251.928 221.054 255.248 219.155Z" fill="black"/>
<path d="M255.183 215.628C254.369 218.605 252.777 226.424 254.076 238.697H268.028C268.349 236.363 267.935 224.96 271.212 213.957C269.551 213.629 267.869 213.414 266.179 213.315C264.024 213.19 261.864 213.19 259.71 213.315C258.79 213.401 257.88 213.568 256.99 213.814C256.558 213.935 256.164 214.166 255.848 214.483C255.531 214.801 255.302 215.196 255.183 215.628Z" fill="#407BFF"/>
<path opacity="0.3" d="M255.183 215.628C254.369 218.605 252.777 226.424 254.076 238.697H268.028C268.349 236.363 267.935 224.96 271.212 213.957C269.551 213.629 267.869 213.414 266.179 213.315C264.024 213.19 261.864 213.19 259.71 213.315C258.79 213.401 257.88 213.568 256.99 213.814C256.558 213.935 256.164 214.166 255.848 214.483C255.531 214.801 255.302 215.196 255.183 215.628Z" fill="black"/>
<path opacity="0.2" d="M267.707 218.977C267.285 220.79 266.914 225.096 268.663 227.795C269.041 223.478 269.791 219.201 270.905 215.014C269.891 214.914 268.106 217.277 267.707 218.977Z" fill="black"/>
<g opacity="0.95">
<path d="M261.101 218.884L260.337 219.219L259.752 218.691C259.008 218.075 258.468 217.248 258.201 216.319C257.935 215.39 257.955 214.403 258.26 213.486C258.732 213.392 259.208 213.323 259.688 213.279C261.842 213.154 264.002 213.154 266.157 213.279C266.656 213.279 267.156 213.343 267.642 213.393L267.156 214.014C265.518 216.061 263.451 217.723 261.101 218.884Z" fill="white"/>
</g>
<path d="M265.9 207.224C265.293 209.309 264.85 211.887 266.178 213.279C264.677 215.137 262.792 216.65 260.652 217.713C259.998 217.203 259.544 216.479 259.372 215.668C259.199 214.857 259.319 214.011 259.709 213.279C262.087 212.722 262.23 209.852 261.973 208.238L265.9 207.224Z" fill="#FFB573"/>
<path opacity="0.2" d="M261.974 208.238C262.18 209.385 262.064 210.566 261.639 211.651C262.009 211.598 262.369 211.492 262.71 211.337C264.073 210.716 264.809 209.745 265.616 208.31C265.701 207.938 265.794 207.596 265.901 207.224L261.974 208.238Z" fill="black"/>
<path d="M258.597 206.346C258.702 206.663 258.874 206.954 259.101 207.201C259.327 207.447 259.603 207.642 259.91 207.774C260.746 208.131 261.338 207.367 261.281 206.489C261.224 205.611 260.703 204.554 259.789 204.568C259.581 204.577 259.377 204.635 259.196 204.737C259.014 204.839 258.859 204.982 258.743 205.155C258.627 205.328 258.553 205.526 258.527 205.733C258.502 205.94 258.526 206.15 258.597 206.346Z" fill="#FFB573"/>
<path opacity="0.2" d="M258.597 206.346C258.702 206.663 258.874 206.954 259.101 207.201C259.327 207.447 259.603 207.642 259.91 207.774C260.746 208.131 261.338 207.367 261.281 206.489C261.224 205.611 260.703 204.554 259.789 204.568C259.581 204.577 259.377 204.635 259.196 204.737C259.014 204.839 258.859 204.982 258.743 205.155C258.627 205.328 258.553 205.526 258.527 205.733C258.502 205.94 258.526 206.15 258.597 206.346Z" fill="black"/>
<path d="M261.902 201.427C261.631 199.563 259.56 201.698 259.324 203.062C259.089 204.425 260.231 205.803 261.009 204.49C261.788 203.176 262.038 202.433 261.902 201.427Z" fill="#263238"/>
<path d="M267.543 204.661C266.65 207.424 266.265 209.066 264.516 210.259C263.986 210.663 263.352 210.908 262.688 210.962C262.024 211.017 261.358 210.88 260.77 210.567C260.182 210.254 259.696 209.778 259.37 209.197C259.044 208.616 258.892 207.954 258.932 207.288C259.003 204.675 260.453 200.598 263.409 199.956C266.365 199.313 268.464 201.898 267.543 204.661Z" fill="#FFB573"/>
<path d="M266.194 207.553C265.123 206.839 264.93 206.567 265.48 205.925C266.408 204.882 265.03 204.732 265.758 203.44C266.772 201.641 263.537 202.905 263.48 201.598C263.43 200.534 260.624 202.448 260.332 201.219C259.91 199.377 262.609 199.72 263.08 198.82C263.552 197.921 266.322 197.785 266.765 199.099C267.207 200.413 268.6 199.363 269.506 200.962C270.413 202.562 268.535 202.683 269.442 204.24C270.156 205.489 268.778 206.382 267.8 207.374C267.215 208.017 266.858 208.002 266.194 207.553Z" fill="#263238"/>
<path d="M268.149 207.574C267.687 208.141 267.03 208.515 266.307 208.624C265.365 208.752 265.108 207.91 265.55 207.06C265.993 206.21 266.907 205.375 267.764 205.632C268.621 205.889 268.728 206.867 268.149 207.574Z" fill="#FFB573"/>
<path d="M263.209 204.718C263.152 204.947 262.988 205.104 262.845 205.082C262.702 205.061 262.631 204.854 262.688 204.625C262.745 204.397 262.909 204.233 263.059 204.261C263.209 204.29 263.273 204.49 263.209 204.718Z" fill="#263238"/>
<path d="M260.71 204.275C260.646 204.504 260.482 204.668 260.339 204.64C260.196 204.611 260.125 204.411 260.182 204.183C260.239 203.954 260.41 203.797 260.553 203.818C260.696 203.84 260.767 204.047 260.71 204.275Z" fill="#263238"/>
<path d="M261.474 204.532C261.029 205.181 260.503 205.772 259.91 206.289C260.037 206.426 260.194 206.533 260.368 206.6C260.543 206.666 260.731 206.692 260.917 206.674L261.474 204.532Z" fill="#ED893E"/>
<path d="M261.395 207.417C261.387 207.415 261.378 207.412 261.371 207.407C261.365 207.402 261.359 207.396 261.355 207.388C261.351 207.38 261.348 207.372 261.348 207.364C261.347 207.355 261.349 207.346 261.352 207.338C261.356 207.321 261.366 207.305 261.38 207.294C261.395 207.284 261.413 207.279 261.431 207.281C261.716 207.331 262.009 207.317 262.289 207.239C262.568 207.161 262.826 207.022 263.044 206.831C263.05 206.825 263.058 206.821 263.066 206.817C263.074 206.814 263.082 206.812 263.091 206.812C263.099 206.812 263.108 206.814 263.116 206.817C263.124 206.821 263.131 206.825 263.137 206.831C263.143 206.838 263.148 206.845 263.151 206.853C263.155 206.861 263.156 206.869 263.156 206.878C263.156 206.887 263.155 206.895 263.151 206.903C263.148 206.911 263.143 206.918 263.137 206.924C262.904 207.134 262.625 207.287 262.323 207.373C262.021 207.458 261.704 207.473 261.395 207.417Z" fill="#263238"/>
<path d="M264.18 204.018C264.161 204.015 264.143 204.007 264.127 203.995C264.112 203.982 264.101 203.966 264.095 203.947C264.036 203.796 263.939 203.662 263.814 203.558C263.689 203.455 263.54 203.384 263.381 203.354C263.364 203.353 263.348 203.348 263.333 203.339C263.319 203.331 263.306 203.32 263.296 203.306C263.286 203.293 263.279 203.278 263.275 203.261C263.271 203.245 263.27 203.228 263.274 203.212C263.28 203.176 263.3 203.143 263.329 203.121C263.358 203.099 263.394 203.088 263.431 203.09C263.633 203.12 263.824 203.201 263.985 203.326C264.146 203.451 264.273 203.616 264.352 203.804C264.364 203.838 264.362 203.876 264.348 203.909C264.333 203.942 264.306 203.968 264.273 203.983C264.261 203.995 264.247 204.004 264.231 204.01C264.215 204.017 264.197 204.019 264.18 204.018Z" fill="#263238"/>
<path d="M259.816 203.169C259.8 203.173 259.783 203.173 259.766 203.169C259.754 203.157 259.744 203.142 259.737 203.126C259.73 203.11 259.727 203.093 259.727 203.076C259.727 203.058 259.73 203.041 259.737 203.025C259.744 203.009 259.754 202.995 259.766 202.983C259.906 202.813 260.083 202.677 260.283 202.587C260.484 202.496 260.703 202.454 260.923 202.462C260.94 202.464 260.956 202.47 260.971 202.479C260.985 202.488 260.998 202.5 261.008 202.514C261.018 202.528 261.025 202.544 261.029 202.561C261.033 202.577 261.033 202.595 261.03 202.612C261.023 202.648 261.003 202.68 260.974 202.702C260.945 202.724 260.909 202.736 260.873 202.733C260.699 202.73 260.526 202.766 260.368 202.839C260.209 202.912 260.07 203.02 259.959 203.154C259.939 203.169 259.915 203.178 259.89 203.181C259.864 203.183 259.839 203.179 259.816 203.169Z" fill="#263238"/>
<path d="M272.747 218.063L268.778 219.576C268.778 219.576 271.198 229.051 270.413 230.322C269.342 232.057 267.435 235.927 265.814 237.755C265.886 238.443 266.151 239.096 266.578 239.64C269.784 238.212 274.247 232.5 274.639 230.736C275.518 226.702 272.747 218.063 272.747 218.063Z" fill="#FFB573"/>
<path d="M272.033 214.079C274.568 214.885 275.26 224.546 275.26 224.546L268.62 225.574C267.99 223.29 267.527 220.964 267.235 218.613C266.821 215.014 269.305 213.215 272.033 214.079Z" fill="#407BFF"/>
<path opacity="0.3" d="M272.033 214.079C274.568 214.885 275.26 224.546 275.26 224.546L268.62 225.574C267.99 223.29 267.527 220.964 267.235 218.613C266.821 215.014 269.305 213.215 272.033 214.079Z" fill="black"/>
</g>
<path d="M215.229 176.981C224.325 168.19 225.044 154.177 216.834 145.681C208.625 137.185 194.595 137.425 185.498 146.215C176.402 155.006 175.683 169.019 183.892 177.515C192.102 186.011 206.132 185.771 215.229 176.981Z" fill="#407BFF"/>
<path d="M214.443 176.169C223.061 167.842 223.742 154.567 215.966 146.52C208.189 138.472 194.899 138.699 186.281 147.027C177.664 155.354 176.982 168.629 184.759 176.677C192.536 184.724 205.826 184.497 214.443 176.169Z" fill="white"/>
<mask id="mask2_615_773" style="mask-type:luminance" maskUnits="userSpaceOnUse" x="179" y="140" width="43" height="43">
<path d="M214.443 176.169C223.061 167.842 223.742 154.567 215.966 146.52C208.189 138.472 194.899 138.699 186.281 147.027C177.664 155.354 176.982 168.629 184.759 176.677C192.536 184.724 205.826 184.497 214.443 176.169Z" fill="white"/>
</mask>
<g mask="url(#mask2_615_773)">
<path d="M209.135 166.541C209.242 168.24 209.327 169.953 209.392 171.66L209.599 176.758L209.634 177.379L209.684 177.922C209.741 178.293 209.784 178.679 209.863 179.078C210.013 179.864 210.206 180.663 210.434 181.463C210.862 183.07 211.384 184.69 211.862 186.29L210.384 187.004C209.49 185.491 208.701 183.919 208.021 182.299C207.692 181.477 207.385 180.642 207.121 179.764C206.98 179.318 206.863 178.865 206.771 178.407L206.65 177.693L206.578 177.036C206.2 173.581 205.95 170.175 205.814 166.74L209.135 166.541Z" fill="#FF8B7B"/>
<path d="M208.349 162.792C209.649 163.128 210.206 168.597 210.206 168.597L204.915 172.074C204.915 172.074 203.266 165.598 204.387 164.141C205.507 162.685 206.443 162.307 208.349 162.792Z" fill="#407BFF"/>
<path opacity="0.2" d="M208.143 164.02L208.786 169.525L206.637 170.925L208.143 164.02Z" fill="black"/>
<path d="M193.849 148.712C191.614 149.033 186.937 159.715 194.563 164.698C202.188 169.682 207.815 164.02 207.815 164.02C207.815 164.02 203.174 158.508 203.845 154.909C204.516 151.311 207.415 146.777 201.474 145.263C197.29 144.228 191.664 145.228 193.849 148.712Z" fill="#263238"/>
<path d="M208.349 162.792C208.349 162.792 209.842 163.335 205.493 182.241H192.392C192.977 176.915 193.206 173.631 191.406 162.699C193.257 162.327 195.133 162.089 197.018 161.985C198.996 161.846 200.981 161.846 202.959 161.985C205.493 162.207 208.349 162.792 208.349 162.792Z" fill="#407BFF"/>
<path opacity="0.2" d="M192.192 167.033C193.356 167.326 194.334 168.618 194.07 171.003C193.913 172.101 193.464 173.137 192.77 174.002C192.692 172.167 192.485 170.039 192.113 167.319L192.192 167.033Z" fill="black"/>
<path d="M201.981 166.162C201.981 166.162 199.718 167.933 199.589 169.811C197.897 168.504 195.733 164.948 195.641 162.671C195.641 162.481 195.716 162.3 195.85 162.166C195.984 162.032 196.165 161.957 196.355 161.957C196.515 161.945 196.675 161.923 196.833 161.892C196.899 161.878 196.967 161.879 197.033 161.895C197.099 161.911 197.16 161.942 197.211 161.985L201.981 166.162Z" fill="#FAFAFA"/>
<path d="M201.98 166.162C202.582 166.537 203.085 167.052 203.447 167.662C203.808 168.272 204.018 168.96 204.058 169.668C205.957 168.347 205.308 164.398 204.429 162.464C204.361 162.313 204.255 162.183 204.121 162.086C203.987 161.99 203.83 161.93 203.665 161.914C203.408 161.914 203.209 161.849 203.073 161.821C203.024 161.812 202.973 161.823 202.932 161.851C202.891 161.879 202.862 161.922 202.852 161.971L201.98 166.162Z" fill="#FAFAFA"/>
<path d="M198.062 155.281C198.305 157.194 198.44 160.7 197.02 161.971C198.352 163.71 200.045 165.139 201.982 166.162C204.781 164.02 202.96 161.971 202.96 161.971C200.861 161.464 201.025 159.886 201.496 158.401L198.062 155.281Z" fill="#FF8B7B"/>
<path opacity="0.2" d="M199.46 156.552L201.495 158.394C201.379 158.738 201.293 159.092 201.238 159.45C200.431 159.329 199.203 158.637 199.096 157.751C199.122 157.328 199.246 156.917 199.46 156.552Z" fill="black"/>
<path d="M195.069 152.211C195.741 155.288 195.962 156.602 197.804 157.851C198.421 158.289 199.143 158.555 199.896 158.623C200.65 158.691 201.408 158.558 202.093 158.238C202.778 157.918 203.367 157.423 203.799 156.802C204.23 156.181 204.49 155.456 204.551 154.702C204.801 151.754 203.659 147.22 200.374 146.663C199.629 146.546 198.868 146.612 198.153 146.854C197.439 147.096 196.794 147.506 196.273 148.051C195.752 148.596 195.371 149.259 195.161 149.983C194.951 150.707 194.92 151.472 195.069 152.211Z" fill="#FF8B7B"/>
<path d="M195.947 154.981C197.925 153.096 197.996 150.761 197.496 150.033C199.196 149.89 203.594 148.819 202.887 147.177C202.18 145.535 195.333 144.649 194.391 148.848C192.12 150.747 193.569 154.552 195.947 154.981Z" fill="#263238"/>
<path d="M200.239 151.932C200.282 152.189 200.446 152.36 200.618 152.325C200.789 152.289 200.889 152.053 200.846 151.804C200.803 151.554 200.639 151.368 200.475 151.411C200.311 151.454 200.204 151.682 200.239 151.932Z" fill="#263238"/>
<path d="M203.152 151.297C203.187 151.554 203.359 151.725 203.523 151.689C203.687 151.654 203.801 151.418 203.759 151.161C203.716 150.904 203.551 150.733 203.387 150.768C203.291 150.813 203.214 150.892 203.171 150.989C203.128 151.086 203.121 151.195 203.152 151.297Z" fill="#263238"/>
<path d="M203.309 150.804L203.901 150.49C203.901 150.49 203.658 151.032 203.309 150.804Z" fill="#263238"/>
<path d="M202.324 151.953C202.642 152.483 203.034 152.964 203.488 153.381C203.373 153.502 203.235 153.598 203.081 153.662C202.927 153.726 202.762 153.757 202.596 153.753L202.324 151.953Z" fill="#FF5652"/>
<path d="M201.345 155.038C201.475 155.031 201.604 155.014 201.731 154.988C201.751 154.983 201.768 154.971 201.78 154.954C201.792 154.937 201.797 154.916 201.795 154.895C201.794 154.885 201.792 154.876 201.787 154.867C201.782 154.858 201.775 154.851 201.766 154.845C201.758 154.84 201.749 154.836 201.739 154.835C201.729 154.834 201.719 154.835 201.709 154.838C201.4 154.918 201.076 154.922 200.765 154.849C200.453 154.775 200.165 154.627 199.924 154.417C199.91 154.403 199.891 154.396 199.871 154.396C199.851 154.396 199.832 154.403 199.817 154.417C199.81 154.424 199.803 154.432 199.799 154.441C199.795 154.45 199.793 154.46 199.793 154.47C199.793 154.481 199.795 154.491 199.799 154.5C199.803 154.509 199.81 154.517 199.817 154.524C200.021 154.712 200.263 154.855 200.526 154.944C200.79 155.032 201.069 155.064 201.345 155.038Z" fill="#263238"/>
<path d="M194.656 155.281C194.813 155.534 195.021 155.752 195.267 155.92C195.512 156.089 195.791 156.204 196.084 156.259C196.884 156.409 197.262 155.666 197.026 154.945C196.791 154.224 196.141 153.439 195.348 153.617C195.176 153.655 195.015 153.734 194.879 153.847C194.743 153.961 194.637 154.105 194.569 154.269C194.501 154.432 194.473 154.609 194.488 154.785C194.504 154.961 194.561 155.131 194.656 155.281Z" fill="#FF8B7B"/>
<path d="M198.874 151.368C198.907 151.364 198.937 151.351 198.962 151.329C198.986 151.307 199.003 151.278 199.01 151.247C199.197 150.764 199.566 150.374 200.038 150.161C200.058 150.154 200.075 150.142 200.09 150.127C200.105 150.113 200.116 150.095 200.124 150.076C200.132 150.057 200.136 150.036 200.136 150.015C200.136 149.994 200.132 149.974 200.124 149.954C200.116 149.937 200.105 149.921 200.091 149.908C200.077 149.895 200.061 149.884 200.043 149.878C200.025 149.871 200.005 149.868 199.986 149.869C199.967 149.87 199.948 149.875 199.931 149.883C199.651 150.008 199.398 150.188 199.188 150.413C198.979 150.637 198.816 150.901 198.71 151.19C198.705 151.209 198.704 151.229 198.707 151.249C198.71 151.268 198.717 151.287 198.728 151.304C198.738 151.321 198.753 151.335 198.769 151.346C198.786 151.357 198.805 151.365 198.824 151.368C198.832 151.372 198.841 151.374 198.849 151.374C198.858 151.374 198.867 151.372 198.874 151.368Z" fill="#263238"/>
<path d="M203.859 149.269C203.886 149.269 203.912 149.262 203.936 149.25C203.959 149.238 203.979 149.22 203.995 149.197C204.022 149.168 204.037 149.13 204.037 149.09C204.037 149.051 204.022 149.012 203.995 148.983C203.797 148.847 203.569 148.759 203.331 148.728C203.092 148.697 202.85 148.724 202.624 148.805C202.586 148.821 202.556 148.85 202.539 148.887C202.522 148.924 202.519 148.966 202.531 149.005C202.538 149.024 202.549 149.041 202.563 149.056C202.577 149.071 202.594 149.082 202.612 149.09C202.631 149.098 202.651 149.103 202.672 149.103C202.692 149.103 202.712 149.098 202.731 149.09C202.909 149.025 203.101 149.004 203.289 149.031C203.477 149.057 203.655 149.129 203.809 149.24L203.859 149.269Z" fill="#263238"/>
<path d="M200.402 151.439L200.995 151.125C200.995 151.125 200.745 151.675 200.402 151.439Z" fill="#263238"/>
<path d="M192.25 181.477L191.836 182.648C191.779 182.741 191.886 182.834 192.036 182.834H205.502C205.623 182.834 205.723 182.777 205.738 182.698L205.93 181.527C205.93 181.449 205.852 181.377 205.716 181.377H192.471C192.429 181.374 192.386 181.381 192.348 181.399C192.309 181.416 192.275 181.443 192.25 181.477Z" fill="#407BFF"/>
<path opacity="0.2" d="M192.25 181.477L191.836 182.648C191.779 182.741 191.886 182.834 192.036 182.834H205.502C205.623 182.834 205.723 182.777 205.738 182.698L205.93 181.527C205.93 181.449 205.852 181.377 205.716 181.377H192.471C192.429 181.374 192.386 181.381 192.348 181.399C192.309 181.416 192.275 181.443 192.25 181.477Z" fill="white"/>
<path d="M193.97 182.955H193.613C193.542 182.955 193.492 182.92 193.499 182.877L193.77 181.356C193.77 181.313 193.841 181.277 193.913 181.277H194.27C194.341 181.277 194.391 181.313 194.384 181.356L194.113 182.877C194.106 182.92 194.041 182.955 193.97 182.955Z" fill="#407BFF"/>
<path opacity="0.4" d="M193.97 182.955H193.613C193.542 182.955 193.492 182.92 193.499 182.877L193.77 181.356C193.77 181.313 193.841 181.277 193.913 181.277H194.27C194.341 181.277 194.391 181.313 194.384 181.356L194.113 182.877C194.106 182.92 194.041 182.955 193.97 182.955Z" fill="black"/>
<path d="M204.493 182.955H204.136C204.065 182.955 204.015 182.92 204.022 182.877L204.293 181.356C204.293 181.313 204.365 181.277 204.436 181.277H204.793C204.865 181.277 204.915 181.313 204.908 181.356L204.636 182.877C204.629 182.92 204.565 182.955 204.493 182.955Z" fill="#407BFF"/>
<path opacity="0.4" d="M204.493 182.955H204.136C204.065 182.955 204.015 182.92 204.022 182.877L204.293 181.356C204.293 181.313 204.365 181.277 204.436 181.277H204.793C204.865 181.277 204.915 181.313 204.908 181.356L204.636 182.877C204.629 182.92 204.565 182.955 204.493 182.955Z" fill="black"/>
<path d="M199.253 182.955H198.896C198.825 182.955 198.775 182.92 198.782 182.877L199.053 181.356C199.053 181.313 199.125 181.277 199.196 181.277H199.553C199.624 181.277 199.674 181.313 199.667 181.356L199.396 182.877C199.389 182.92 199.325 182.955 199.253 182.955Z" fill="#407BFF"/>
<path opacity="0.4" d="M199.253 182.955H198.896C198.825 182.955 198.775 182.92 198.782 182.877L199.053 181.356C199.053 181.313 199.125 181.277 199.196 181.277H199.553C199.624 181.277 199.674 181.313 199.667 181.356L199.396 182.877C199.389 182.92 199.325 182.955 199.253 182.955Z" fill="black"/>
<path d="M192.863 167.076C192.492 169.218 192.071 171.424 191.642 173.595C191.435 174.68 191.2 175.737 190.971 176.844L190.636 178.464L190.486 179.178C190.468 179.229 190.468 179.285 190.486 179.335C190.602 179.636 190.788 179.905 191.028 180.121C191.36 180.445 191.724 180.734 192.114 180.985C192.988 181.542 193.902 182.036 194.848 182.463C195.812 182.913 196.812 183.327 197.826 183.705C198.839 184.084 199.875 184.419 200.896 184.79L200.524 186.383C198.284 186.015 196.079 185.457 193.934 184.712C192.821 184.33 191.744 183.852 190.714 183.284C190.155 182.972 189.627 182.609 189.136 182.199C188.51 181.705 188.019 181.062 187.708 180.328C187.534 179.873 187.466 179.385 187.508 178.9C187.544 178.593 187.558 178.529 187.58 178.379L187.644 177.965L187.894 176.329C188.072 175.237 188.229 174.145 188.422 173.052C188.786 170.875 189.136 168.697 189.586 166.526L192.863 167.076Z" fill="#FF8B7B"/>
<path d="M191.406 162.706C190.07 163.106 188.186 167.619 188.186 167.619L192.47 172.338C192.47 172.338 195.154 167.483 194.726 165.791C194.297 164.099 192.934 162.249 191.406 162.706Z" fill="#407BFF"/>
</g>
<path opacity="0.3" d="M183.726 106.993H234.906C235.382 106.985 235.838 106.801 236.186 106.474C236.533 106.148 236.746 105.704 236.783 105.229C236.802 105.004 236.774 104.776 236.7 104.562C236.625 104.348 236.507 104.152 236.352 103.987C236.197 103.821 236.01 103.69 235.801 103.601C235.593 103.513 235.368 103.469 235.141 103.473H183.969C183.493 103.48 183.036 103.664 182.688 103.988C182.34 104.313 182.124 104.755 182.084 105.229C182.065 105.455 182.093 105.683 182.168 105.897C182.242 106.112 182.36 106.308 182.515 106.474C182.669 106.641 182.857 106.772 183.066 106.862C183.274 106.951 183.499 106.996 183.726 106.993Z" fill="#407BFF"/>
<path opacity="0.3" d="M197.863 114.733H234.355C234.832 114.724 235.288 114.539 235.636 114.213C235.985 113.887 236.2 113.444 236.24 112.969C236.259 112.743 236.231 112.516 236.156 112.302C236.082 112.088 235.964 111.892 235.809 111.726C235.654 111.561 235.467 111.43 235.258 111.341C235.049 111.253 234.825 111.209 234.598 111.213H198.105C197.629 111.22 197.173 111.403 196.825 111.728C196.477 112.052 196.261 112.495 196.221 112.969C196.202 113.195 196.23 113.423 196.304 113.637C196.379 113.852 196.497 114.048 196.651 114.214C196.806 114.38 196.994 114.512 197.202 114.601C197.411 114.691 197.636 114.735 197.863 114.733Z" fill="#407BFF"/>
<path d="M206.389 99.246H235.42C235.896 99.2404 236.352 99.057 236.7 98.732C237.047 98.407 237.26 97.9639 237.298 97.4896C237.317 97.2641 237.288 97.0371 237.215 96.8232C237.141 96.6092 237.023 96.413 236.869 96.2471C236.716 96.0811 236.529 95.9491 236.321 95.8594C236.113 95.7696 235.889 95.7242 235.663 95.726H206.632C206.155 95.7334 205.699 95.9183 205.351 96.2445C205.004 96.5706 204.791 97.0146 204.754 97.4896C204.735 97.7147 204.763 97.9414 204.837 98.155C204.911 98.3685 205.029 98.5643 205.183 98.7297C205.336 98.8951 205.523 99.0265 205.731 99.1154C205.939 99.2043 206.163 99.2488 206.389 99.246Z" fill="white"/>
<path opacity="0.3" d="M206.453 220.076H227.159C227.386 220.072 227.611 220.116 227.819 220.205C228.028 220.293 228.215 220.424 228.37 220.59C228.525 220.755 228.643 220.951 228.718 221.165C228.792 221.38 228.82 221.607 228.801 221.833C228.764 222.309 228.55 222.754 228.201 223.08C227.852 223.406 227.394 223.591 226.916 223.596H206.21C205.983 223.599 205.759 223.554 205.55 223.465C205.341 223.376 205.154 223.244 204.999 223.078C204.844 222.912 204.726 222.715 204.652 222.501C204.578 222.286 204.549 222.059 204.568 221.833C204.607 221.358 204.822 220.914 205.171 220.59C205.519 220.265 205.977 220.082 206.453 220.076Z" fill="#407BFF"/>
<path opacity="0.3" d="M178.414 220.076H199.12C199.347 220.072 199.571 220.116 199.78 220.205C199.989 220.293 200.176 220.424 200.331 220.59C200.486 220.755 200.604 220.951 200.678 221.165C200.753 221.38 200.781 221.607 200.762 221.833C200.722 222.308 200.507 222.751 200.159 223.076C199.81 223.402 199.354 223.587 198.877 223.596H178.171C177.944 223.599 177.719 223.554 177.511 223.465C177.302 223.376 177.115 223.244 176.96 223.078C176.805 222.912 176.687 222.715 176.613 222.501C176.539 222.286 176.51 222.059 176.529 221.833C176.567 221.357 176.781 220.913 177.13 220.588C177.479 220.263 177.937 220.08 178.414 220.076Z" fill="#407BFF"/>
<path opacity="0.3" d="M191.179 212.336H227.672C227.898 212.333 228.123 212.376 228.332 212.465C228.54 212.553 228.728 212.685 228.883 212.85C229.037 213.016 229.156 213.212 229.23 213.426C229.304 213.64 229.333 213.867 229.314 214.093C229.277 214.568 229.063 215.012 228.716 215.338C228.369 215.664 227.912 215.849 227.436 215.856H190.936C190.71 215.859 190.485 215.815 190.277 215.725C190.068 215.636 189.881 215.504 189.727 215.338C189.573 215.172 189.456 214.975 189.382 214.76C189.309 214.546 189.281 214.319 189.301 214.093C189.339 213.619 189.552 213.175 189.899 212.85C190.247 212.525 190.703 212.342 191.179 212.336Z" fill="#407BFF"/>
<path d="M186.354 204.589H228.194C228.421 204.587 228.645 204.631 228.854 204.721C229.062 204.81 229.249 204.942 229.403 205.108C229.557 205.274 229.675 205.471 229.748 205.685C229.821 205.9 229.849 206.127 229.829 206.353C229.792 206.827 229.578 207.271 229.231 207.596C228.883 207.921 228.427 208.104 227.951 208.11H186.132C185.906 208.113 185.681 208.07 185.472 207.981C185.264 207.893 185.076 207.761 184.921 207.596C184.766 207.43 184.648 207.234 184.574 207.02C184.5 206.806 184.471 206.579 184.49 206.353C184.527 205.88 184.738 205.438 185.082 205.113C185.427 204.787 185.88 204.6 186.354 204.589Z" fill="white"/>
<path opacity="0.3" d="M273.318 167.576H235.19C234.714 167.583 234.257 167.768 233.91 168.094C233.563 168.42 233.35 168.864 233.312 169.339C233.293 169.565 233.322 169.791 233.396 170.005C233.469 170.218 233.587 170.414 233.741 170.58C233.895 170.745 234.082 170.876 234.29 170.965C234.497 171.054 234.721 171.099 234.947 171.096H273.075C273.551 171.09 274.007 170.907 274.355 170.582C274.702 170.257 274.915 169.814 274.953 169.339C274.973 169.114 274.945 168.886 274.872 168.672C274.799 168.457 274.681 168.261 274.527 168.095C274.373 167.928 274.186 167.796 273.977 167.707C273.769 167.618 273.544 167.573 273.318 167.576Z" fill="#407BFF"/>
<path opacity="0.3" d="M253.712 159.836H235.719C235.243 159.843 234.787 160.028 234.439 160.355C234.092 160.681 233.879 161.125 233.842 161.6C233.823 161.825 233.851 162.053 233.925 162.267C234 162.481 234.118 162.677 234.273 162.842C234.428 163.008 234.615 163.139 234.824 163.228C235.032 163.316 235.257 163.36 235.484 163.356H253.469C253.945 163.349 254.402 163.165 254.75 162.841C255.098 162.516 255.314 162.074 255.354 161.6C255.373 161.374 255.345 161.146 255.271 160.932C255.196 160.717 255.078 160.521 254.924 160.354C254.769 160.188 254.581 160.057 254.373 159.967C254.164 159.878 253.939 159.833 253.712 159.836Z" fill="#407BFF"/>
<path d="M264.243 152.082H236.254C235.778 152.089 235.322 152.273 234.973 152.597C234.625 152.922 234.41 153.364 234.369 153.838C234.35 154.065 234.379 154.292 234.453 154.507C234.527 154.721 234.645 154.918 234.8 155.084C234.954 155.25 235.142 155.382 235.351 155.471C235.559 155.56 235.784 155.605 236.011 155.602H264.007C264.484 155.596 264.941 155.412 265.289 155.085C265.637 154.759 265.849 154.314 265.885 153.838C265.904 153.613 265.875 153.385 265.801 153.171C265.727 152.957 265.608 152.761 265.454 152.596C265.299 152.43 265.111 152.299 264.903 152.21C264.694 152.122 264.469 152.078 264.243 152.082Z" fill="white"/>
<path opacity="0.3" d="M286.884 159.836H261.322C260.846 159.845 260.389 160.03 260.041 160.356C259.693 160.681 259.478 161.125 259.437 161.6C259.418 161.825 259.447 162.053 259.521 162.267C259.595 162.481 259.714 162.677 259.869 162.842C260.023 163.008 260.211 163.139 260.42 163.228C260.628 163.316 260.853 163.36 261.08 163.356H286.641C287.117 163.349 287.573 163.165 287.921 162.841C288.27 162.516 288.485 162.074 288.526 161.6C288.545 161.374 288.516 161.146 288.442 160.932C288.368 160.717 288.249 160.521 288.095 160.354C287.94 160.188 287.753 160.057 287.544 159.967C287.335 159.878 287.11 159.833 286.884 159.836Z" fill="#407BFF"/>
<path opacity="0.3" d="M171.938 86.8224H191.058L190.045 69.8792L171.938 86.8224Z" fill="#407BFF"/>
<path d="M171.938 86.8224L192.408 84.3733L190.045 69.8792L171.938 86.8224Z" fill="#407BFF"/>
<path d="M94.8044 137.017C94.1975 138.445 93.5263 140.03 92.9337 141.558C92.3411 143.086 91.7342 144.649 91.1844 146.199C90.0663 149.229 89.148 152.33 88.4355 155.481C88.3355 155.866 88.2856 156.245 88.2142 156.623L88.1142 157.194L88.0357 157.644C87.965 158.279 87.9506 158.92 87.9928 159.558C88.1158 161.118 88.328 162.67 88.6283 164.206C89.2423 167.412 90.0563 170.732 90.8631 173.987L87.236 175.523C85.434 172.441 83.9141 169.203 82.6949 165.848C82.0429 164.084 81.539 162.269 81.1884 160.421C80.9793 159.359 80.8859 158.277 80.9099 157.194V156.73C80.9099 156.58 80.9099 156.487 80.9099 156.359L80.9813 155.645C81.0313 155.181 81.0599 154.702 81.1384 154.217C81.6676 150.616 82.5013 147.067 83.6303 143.607C84.1872 141.9 84.7584 140.215 85.4224 138.566C86.0864 136.917 86.729 135.296 87.5644 133.604L94.8044 137.017Z" fill="#7F3E3B"/>
<path d="M90.7417 173.102L93.5263 175.815L87.4502 178.671C87.4502 178.671 85.9793 176.101 86.9932 173.773L90.7417 173.102Z" fill="#7F3E3B"/>
<path d="M95.7673 179.864L90.6408 181.963L87.4492 178.643L93.5254 175.815L95.7673 179.864Z" fill="#7F3E3B"/>
<path d="M228.335 164.243C236.357 144.876 227.16 122.673 207.793 114.651C188.426 106.629 166.223 115.826 158.201 135.193C150.179 154.56 159.376 176.763 178.743 184.785C198.11 192.807 220.313 183.61 228.335 164.243Z" fill="#407BFF"/>
<path d="M193.266 185.676C213.124 185.676 229.223 169.577 229.223 149.719C229.223 129.86 213.124 113.762 193.266 113.762C173.407 113.762 157.309 129.86 157.309 149.719C157.309 169.577 173.407 185.676 193.266 185.676Z" fill="white"/>
<mask id="mask3_615_773" style="mask-type:luminance" maskUnits="userSpaceOnUse" x="157" y="113" width="73" height="73">
<path d="M193.266 185.676C213.124 185.676 229.223 169.577 229.223 149.719C229.223 129.86 213.124 113.762 193.266 113.762C173.407 113.762 157.309 129.86 157.309 149.719C157.309 169.577 173.407 185.676 193.266 185.676Z" fill="white"/>
</mask>
<g mask="url(#mask3_615_773)">
<path d="M208.874 157.994C209.274 160.936 209.588 163.892 209.938 166.84L210.909 175.644L211.037 176.701L211.187 177.65L211.394 178.636L211.644 179.642C212.015 180.992 212.437 182.363 212.908 183.734C213.822 186.482 214.893 189.239 215.942 191.98L213.486 193.308C211.801 190.771 210.28 188.128 208.931 185.397C208.267 184.012 207.631 182.605 207.089 181.113L206.689 179.985L206.332 178.807C206.225 178.4 206.132 177.979 206.032 177.565L205.811 176.422C205.261 173.438 204.811 170.496 204.383 167.54C203.954 164.584 203.576 161.628 203.262 158.658L208.874 157.994Z" fill="#FF8B7B"/>
<path d="M207.096 151.775C209.373 152.353 210.965 161.728 210.965 161.728L202.262 167.647C202.262 167.647 198.692 156.537 200.427 154.038C202.255 151.432 203.775 150.932 207.096 151.775Z" fill="#407BFF"/>
<path opacity="0.2" d="M206.897 153.867L208.646 163.313L205.119 165.705L206.897 153.867Z" fill="black"/>
<path d="M180.578 127.627C176.794 128.177 170.018 146.491 183.692 155.038C197.365 163.584 206.347 153.874 206.347 153.874C206.347 153.874 197.743 144.414 198.493 138.245C199.242 132.076 203.662 124.3 193.295 121.708C185.948 119.873 176.43 121.644 180.578 127.627Z" fill="#263238"/>
<path d="M207.096 151.775C207.096 151.775 209.73 152.703 204.461 185.119H182.02C182.398 175.987 182.406 170.36 178.043 151.618C181.183 150.966 184.366 150.546 187.568 150.361C190.96 150.115 194.365 150.115 197.757 150.361C202.133 150.761 207.096 151.775 207.096 151.775Z" fill="#407BFF"/>
<path opacity="0.2" d="M179.928 159.036C181.963 159.543 183.841 161.757 183.612 165.841C183.488 167.697 182.84 169.48 181.742 170.982C181.385 167.84 180.778 164.199 179.828 159.558L179.928 159.036Z" fill="black"/>
<path d="M196.58 157.544C196.58 157.544 192.903 160.571 192.903 163.792C189.847 161.557 185.727 155.459 185.291 151.561C185.278 151.404 185.296 151.245 185.345 151.095C185.394 150.945 185.473 150.807 185.577 150.688C185.681 150.569 185.808 150.473 185.951 150.404C186.093 150.336 186.248 150.297 186.405 150.29C186.679 150.275 186.951 150.239 187.219 150.183C187.334 150.158 187.453 150.16 187.567 150.189C187.681 150.217 187.786 150.271 187.876 150.347L196.58 157.544Z" fill="#FAFAFA"/>
<path d="M196.58 157.544C197.652 158.182 198.566 159.053 199.254 160.092C199.943 161.132 200.388 162.313 200.557 163.549C203.649 161.285 202.071 154.517 200.35 151.204C200.215 150.946 200.019 150.725 199.779 150.561C199.538 150.396 199.261 150.293 198.972 150.261C198.515 150.204 198.172 150.147 197.944 150.097C197.902 150.089 197.86 150.089 197.818 150.098C197.777 150.107 197.738 150.125 197.704 150.15C197.67 150.174 197.641 150.206 197.62 150.242C197.598 150.279 197.585 150.319 197.58 150.361L196.58 157.544Z" fill="#FAFAFA"/>
<path d="M188.582 138.887C189.225 142.164 189.867 148.169 187.568 150.361C190.058 153.337 193.123 155.78 196.579 157.544C201.127 153.917 197.757 150.361 197.757 150.361C194.101 149.49 194.187 146.791 194.837 144.228L188.582 138.887Z" fill="#FF8B7B"/>
<path opacity="0.2" d="M191.132 141.065L194.83 144.228C194.675 144.82 194.569 145.424 194.516 146.034C193.124 145.834 190.946 144.642 190.625 143.121C190.622 142.405 190.796 141.698 191.132 141.065Z" fill="black"/>
<path d="M183.084 133.625C184.598 138.894 185.126 141.151 188.439 143.3C193.437 146.52 199.556 143.507 199.641 137.888C199.72 132.833 197.228 125.036 191.53 124.1C190.274 123.882 188.982 123.989 187.778 124.41C186.574 124.832 185.498 125.554 184.652 126.508C183.806 127.462 183.217 128.617 182.943 129.863C182.668 131.108 182.717 132.403 183.084 133.625Z" fill="#FF8B7B"/>
<path d="M184.928 138.373C188.105 135.132 187.948 131.133 187.005 129.884C189.904 129.641 197.323 127.806 195.916 125C194.509 122.194 182.671 120.666 181.543 127.856C177.866 131.105 180.794 137.638 184.928 138.373Z" fill="#263238"/>
<path d="M191.916 133.147C192.016 133.582 192.323 133.861 192.63 133.818C192.937 133.775 193.066 133.354 192.973 132.918C192.88 132.483 192.566 132.204 192.259 132.247C191.952 132.29 191.824 132.711 191.916 133.147Z" fill="#263238"/>
<path d="M196.837 132.09C196.937 132.525 197.244 132.804 197.551 132.761C197.858 132.718 197.987 132.297 197.887 131.861C197.787 131.426 197.48 131.147 197.173 131.183C196.866 131.219 196.744 131.619 196.837 132.09Z" fill="#263238"/>
<path d="M197.064 131.205L198.043 130.669C198.043 130.669 197.678 131.604 197.064 131.205Z" fill="#263238"/>
<path d="M195.494 133.175C196.094 134.078 196.815 134.895 197.636 135.603C197.45 135.811 197.22 135.975 196.964 136.085C196.707 136.195 196.43 136.247 196.151 136.238L195.494 133.175Z" fill="#FF5652"/>
<path d="M194.209 138.473C194.43 138.458 194.65 138.427 194.866 138.38C194.9 138.372 194.929 138.351 194.947 138.322C194.966 138.292 194.973 138.257 194.966 138.223C194.958 138.19 194.937 138.161 194.907 138.142C194.878 138.123 194.843 138.117 194.809 138.123C194.27 138.254 193.709 138.258 193.168 138.134C192.628 138.01 192.124 137.762 191.696 137.409C191.671 137.386 191.638 137.373 191.603 137.373C191.569 137.373 191.535 137.386 191.51 137.409C191.498 137.421 191.488 137.436 191.481 137.452C191.474 137.468 191.471 137.485 191.471 137.502C191.471 137.519 191.474 137.537 191.481 137.553C191.488 137.569 191.498 137.583 191.51 137.595C191.879 137.914 192.308 138.155 192.771 138.306C193.235 138.457 193.724 138.514 194.209 138.473Z" fill="#263238"/>
<path d="M182.736 138.88C183.03 139.314 183.408 139.686 183.846 139.974C184.285 140.262 184.776 140.46 185.292 140.558C186.677 140.815 187.241 139.551 186.72 138.309C186.277 137.195 185.028 135.724 183.692 136.024C183.404 136.101 183.14 136.249 182.922 136.453C182.705 136.657 182.542 136.912 182.447 137.195C182.352 137.478 182.329 137.78 182.379 138.074C182.43 138.368 182.552 138.645 182.736 138.88Z" fill="#FF8B7B"/>
<path d="M189.51 132.19C189.564 132.183 189.615 132.16 189.654 132.122C189.694 132.085 189.721 132.036 189.731 131.983C189.86 131.575 190.072 131.198 190.353 130.876C190.635 130.555 190.979 130.294 191.366 130.112C191.398 130.098 191.427 130.078 191.451 130.053C191.475 130.028 191.494 129.998 191.506 129.965C191.518 129.932 191.523 129.897 191.521 129.862C191.519 129.828 191.51 129.794 191.495 129.762C191.48 129.731 191.46 129.703 191.434 129.68C191.408 129.656 191.378 129.639 191.346 129.627C191.313 129.616 191.278 129.611 191.244 129.614C191.21 129.616 191.176 129.625 191.145 129.641C190.681 129.856 190.269 130.168 189.937 130.556C189.604 130.944 189.359 131.399 189.217 131.89C189.211 131.923 189.211 131.958 189.219 131.991C189.226 132.024 189.239 132.055 189.258 132.083C189.278 132.111 189.302 132.135 189.331 132.153C189.359 132.171 189.391 132.184 189.424 132.19C189.452 132.197 189.482 132.197 189.51 132.19Z" fill="#263238"/>
<path d="M197.78 128.57C197.838 128.577 197.898 128.563 197.947 128.531C197.997 128.499 198.035 128.451 198.053 128.395C198.072 128.338 198.07 128.278 198.049 128.222C198.028 128.167 197.988 128.121 197.937 128.091C197.595 127.853 197.202 127.701 196.789 127.648C196.376 127.594 195.957 127.641 195.566 127.784C195.503 127.813 195.454 127.864 195.429 127.928C195.403 127.992 195.404 128.064 195.431 128.127C195.444 128.159 195.463 128.188 195.488 128.212C195.512 128.236 195.541 128.255 195.573 128.267C195.605 128.28 195.639 128.286 195.674 128.285C195.708 128.285 195.742 128.277 195.773 128.263C196.085 128.154 196.418 128.121 196.744 128.167C197.071 128.213 197.382 128.337 197.651 128.527C197.688 128.555 197.733 128.57 197.78 128.57Z" fill="#263238"/>
<path d="M192.139 132.297L193.117 131.761C193.117 131.761 192.781 132.697 192.139 132.297Z" fill="#263238"/>
<path d="M181.686 183.805L181.108 185.811C181.036 185.968 181.215 186.125 181.479 186.125H204.57C204.77 186.125 204.941 186.026 204.955 185.904L205.155 183.891C205.155 183.755 204.991 183.634 204.77 183.634H182.072C181.998 183.624 181.923 183.635 181.855 183.665C181.787 183.696 181.728 183.744 181.686 183.805Z" fill="#407BFF"/>
<path opacity="0.2" d="M181.686 183.805L181.108 185.811C181.036 185.968 181.215 186.125 181.479 186.125H204.57C204.77 186.125 204.941 186.026 204.955 185.904L205.155 183.891C205.155 183.755 204.991 183.634 204.77 183.634H182.072C181.998 183.624 181.923 183.635 181.855 183.665C181.787 183.696 181.728 183.744 181.686 183.805Z" fill="white"/>
<path d="M184.813 186.354H184.213C184.092 186.354 183.999 186.29 184.006 186.211L184.292 183.605C184.292 183.527 184.406 183.462 184.527 183.462H185.134C185.256 183.462 185.349 183.527 185.341 183.605L185.056 186.211C185.042 186.283 184.927 186.354 184.813 186.354Z" fill="#407BFF"/>
<path opacity="0.4" d="M184.813 186.354H184.213C184.092 186.354 183.999 186.29 184.006 186.211L184.292 183.605C184.292 183.527 184.406 183.462 184.527 183.462H185.134C185.256 183.462 185.349 183.527 185.341 183.605L185.056 186.211C185.042 186.283 184.927 186.354 184.813 186.354Z" fill="black"/>
<path d="M202.862 186.354H202.248C202.127 186.354 202.034 186.29 202.048 186.211L202.334 183.605C202.334 183.527 202.448 183.462 202.57 183.462H203.176C203.298 183.462 203.391 183.527 203.384 183.605L203.098 186.211C203.08 186.257 203.047 186.296 203.004 186.322C202.962 186.348 202.912 186.359 202.862 186.354Z" fill="#407BFF"/>
<path opacity="0.4" d="M202.862 186.354H202.248C202.127 186.354 202.034 186.29 202.048 186.211L202.334 183.605C202.334 183.527 202.448 183.462 202.57 183.462H203.176C203.298 183.462 203.391 183.527 203.384 183.605L203.098 186.211C203.08 186.257 203.047 186.296 203.004 186.322C202.962 186.348 202.912 186.359 202.862 186.354Z" fill="black"/>
<path d="M193.873 186.354H193.266C193.145 186.354 193.052 186.29 193.059 186.211L193.345 183.605C193.345 183.527 193.459 183.462 193.58 183.462H194.209C194.33 183.462 194.423 183.527 194.416 183.605L194.13 186.211C194.101 186.283 193.994 186.354 193.873 186.354Z" fill="#407BFF"/>
<path opacity="0.4" d="M193.873 186.354H193.266C193.145 186.354 193.052 186.29 193.059 186.211L193.345 183.605C193.345 183.527 193.459 183.462 193.58 183.462H194.209C194.33 183.462 194.423 183.527 194.416 183.605L194.13 186.211C194.101 186.283 193.994 186.354 193.873 186.354Z" fill="black"/>
<path d="M181.042 158.908C180.857 160.807 180.621 162.706 180.414 164.62L179.7 170.332C179.472 172.224 179.172 174.116 178.915 176.044L178.508 178.9L178.379 179.799C178.387 179.939 178.426 180.076 178.493 180.199C178.804 180.745 179.213 181.23 179.7 181.627C180.335 182.152 181.008 182.629 181.713 183.055C183.254 183.993 184.854 184.828 186.504 185.554C188.189 186.318 189.924 186.982 191.688 187.646C193.452 188.31 195.258 188.917 197.007 189.495L196.379 192.223C192.512 191.6 188.703 190.659 184.991 189.41C183.069 188.781 181.202 187.998 179.407 187.068C178.446 186.568 177.529 185.987 176.665 185.333C175.63 184.579 174.756 183.624 174.095 182.527C173.706 181.808 173.463 181.02 173.381 180.206C173.381 179.985 173.345 179.764 173.381 179.542C173.417 179.321 173.381 179.043 173.417 178.971L173.481 178.257L173.724 175.401C173.902 173.502 174.038 171.596 174.245 169.689L174.823 163.977C175.052 162.078 175.245 160.179 175.495 158.265L181.042 158.908Z" fill="#FF8B7B"/>
<path d="M178.044 151.618C175.795 152.332 173.096 160.043 173.096 160.043L180.95 168.14C180.95 168.14 184.984 159.815 184.034 156.909C183.07 153.881 180.643 150.832 178.044 151.618Z" fill="#407BFF"/>
</g>
<path opacity="0.2" d="M158.878 158.979C157.046 152.179 157.272 144.989 159.527 138.317C161.781 131.646 165.963 125.793 171.545 121.498C177.126 117.203 183.855 114.66 190.882 114.189C197.908 113.719 204.916 115.343 211.02 118.856C217.124 122.368 222.049 127.612 225.172 133.924C228.296 140.235 229.478 147.332 228.569 154.315C227.659 161.298 224.7 167.855 220.064 173.156C215.428 178.458 209.325 182.265 202.525 184.098C198.01 185.315 193.299 185.63 188.662 185.026C184.025 184.422 179.552 182.911 175.499 180.579C171.446 178.246 167.892 175.138 165.04 171.432C162.188 167.726 160.094 163.495 158.878 158.979Z" fill="#407BFF"/>
<path opacity="0.2" d="M219.068 125.178L189.744 185.154C192.259 185.411 194.795 185.39 197.306 185.09L223.674 131.183C222.359 129.022 220.815 127.008 219.068 125.178ZM227.636 140.444L227.444 139.73L206.388 182.798C214.508 179.574 221.16 173.477 225.078 165.668C228.996 157.858 229.907 148.881 227.636 140.444ZM183.99 115.332C177.774 117.008 172.129 120.336 167.655 124.964C163.18 129.592 160.044 135.346 158.579 141.615C157.114 147.883 157.375 154.431 159.335 160.563C161.295 166.694 164.88 172.18 169.71 176.436L199.919 114.725C194.632 113.715 189.184 113.923 183.99 115.332Z" fill="white"/>
<path d="M153.194 145.849L152.48 145.777C152.595 144.556 152.773 143.328 153.002 142.129L153.716 142.264C153.509 143.443 153.316 144.649 153.194 145.849ZM154.58 138.602L153.866 138.402C154.806 135.221 156.124 132.165 157.793 129.298L158.414 129.655C156.783 132.473 155.496 135.477 154.58 138.602Z" fill="#407BFF"/>
<path d="M230.378 139.708C228.4 132.368 224.29 125.779 218.567 120.774C212.845 115.769 205.767 112.573 198.228 111.591C190.69 110.608 183.029 111.883 176.215 115.254C169.401 118.625 163.739 123.941 159.946 130.529C156.152 137.118 154.398 144.683 154.904 152.268C155.409 159.854 158.153 167.119 162.788 173.145C167.422 179.172 173.74 183.688 180.941 186.125C188.142 188.561 195.905 188.807 203.246 186.832C208.122 185.521 212.692 183.261 216.695 180.183C220.698 177.104 224.055 173.267 226.575 168.891C229.094 164.515 230.727 159.685 231.38 154.678C232.032 149.671 231.692 144.584 230.378 139.708ZM158.878 158.986C157.046 152.186 157.272 144.996 159.526 138.324C161.781 131.653 165.963 125.8 171.545 121.505C177.126 117.21 183.855 114.667 190.882 114.197C197.908 113.726 204.916 115.35 211.02 118.863C217.124 122.375 222.049 127.619 225.172 133.931C228.296 140.242 229.478 147.339 228.569 154.322C227.659 161.305 224.7 167.862 220.064 173.163C215.428 178.465 209.324 182.272 202.525 184.105C198.009 185.322 193.298 185.637 188.66 185.033C184.023 184.428 179.55 182.916 175.497 180.583C171.444 178.25 167.89 175.141 165.038 171.434C162.187 167.727 160.094 163.495 158.878 158.979V158.986Z" fill="#407BFF"/>
<path d="M159.45 164.87C159.45 166.505 159.029 166.719 158.579 166.769L157.286 167.112L154.695 167.826L149.511 169.197L139.122 171.86C132.187 173.602 125.242 175.299 118.288 176.951L97.4247 181.949L87.0075 184.476C83.5374 185.34 80.0531 186.14 76.6188 187.139C76.2704 187.242 75.9054 187.274 75.5444 187.235C75.1835 187.196 74.8338 187.087 74.5152 186.913C74.1966 186.739 73.9155 186.504 73.6877 186.221C73.46 185.938 73.2902 185.613 73.188 185.265C73.0858 184.917 73.0532 184.552 73.0921 184.191C73.1309 183.83 73.2405 183.48 73.4146 183.162C73.5886 182.843 73.8237 182.562 74.1064 182.334C74.3891 182.106 74.7139 181.937 75.0622 181.834H75.1765C78.6537 180.978 82.0666 179.914 85.4938 178.921L95.7754 175.872L116.317 169.689C123.167 167.619 130.024 165.593 136.888 163.613L147.205 160.65L152.374 159.222L154.959 158.508L156.251 158.151C156.665 157.973 157.122 157.951 157.965 159.358C158.955 161.024 159.469 162.931 159.45 164.87Z" fill="#407BFF"/>
<path d="M114.525 111.598C114.525 112.019 114.747 112.362 115.025 112.362C115.304 112.362 115.525 112.019 115.525 111.598C115.525 111.177 115.304 110.827 115.025 110.827C114.747 110.827 114.525 111.17 114.525 111.598Z" fill="#263238"/>
<path d="M114.71 112.362C115.212 113.656 115.89 114.874 116.724 115.982C116.435 116.189 116.104 116.33 115.755 116.395C115.406 116.46 115.047 116.449 114.703 116.361L114.71 112.362Z" fill="#630F0F"/>
<path d="M113.026 109.242C112.974 109.24 112.924 109.223 112.883 109.192C112.841 109.16 112.811 109.117 112.795 109.068C112.779 109.018 112.779 108.965 112.795 108.916C112.811 108.866 112.842 108.823 112.883 108.792C113.199 108.556 113.566 108.397 113.954 108.33C114.343 108.263 114.742 108.289 115.118 108.407C115.179 108.43 115.229 108.478 115.256 108.538C115.282 108.598 115.284 108.666 115.261 108.728C115.237 108.789 115.19 108.839 115.13 108.865C115.069 108.892 115.001 108.894 114.94 108.871C114.64 108.781 114.324 108.764 114.016 108.82C113.708 108.876 113.418 109.003 113.169 109.192C113.129 109.225 113.078 109.243 113.026 109.242Z" fill="#263238"/>
<path d="M100.902 114.333C101.28 118.467 101.33 125.985 98.4102 128.449C98.4102 128.449 99.0742 132.668 106.171 133.325C113.975 134.039 110.284 129.548 110.284 129.548C106.121 128.07 106.543 124.714 107.578 121.63L100.902 114.333Z" fill="#7F3E3B"/>
<path d="M89.4843 283.679C88.8702 283.936 87.4637 283.315 87.0138 283.051C86.9933 283.041 86.9767 283.024 86.9664 283.003C86.9561 282.983 86.9527 282.959 86.9567 282.937C86.9585 282.912 86.9677 282.889 86.983 282.87C86.9983 282.851 87.019 282.837 87.0424 282.83C87.1138 282.83 88.7846 282.273 89.4629 282.665C89.5374 282.706 89.6023 282.761 89.6529 282.829C89.7034 282.897 89.7385 282.975 89.7556 283.058C89.7913 283.157 89.7946 283.266 89.7651 283.367C89.7356 283.468 89.6748 283.558 89.5914 283.622C89.5581 283.645 89.5221 283.665 89.4843 283.679ZM87.4065 282.965C88.1205 283.322 89.1416 283.622 89.4414 283.408C89.4414 283.408 89.5628 283.322 89.5128 283.094C89.5024 283.046 89.4817 283 89.4521 282.961C89.4225 282.921 89.3848 282.889 89.3415 282.865C88.6992 282.714 88.0265 282.753 87.4065 282.98V282.965Z" fill="#407BFF"/>
<path d="M87.4724 282.951C87.3548 283 87.2329 283.038 87.1083 283.065C87.0869 283.073 87.0636 283.074 87.0417 283.067C87.0199 283.061 87.0007 283.048 86.9869 283.03C86.9763 283.01 86.9707 282.988 86.9707 282.965C86.9707 282.943 86.9763 282.921 86.9869 282.901C86.9869 282.844 87.5652 281.43 88.2935 281.13C88.38 281.091 88.4736 281.071 88.5684 281.071C88.6632 281.071 88.7568 281.091 88.8433 281.13C88.9332 281.155 89.0112 281.211 89.0636 281.288C89.1159 281.366 89.139 281.459 89.1289 281.552C89.0575 282.03 88.1364 282.673 87.4724 282.951ZM87.301 282.751C87.9436 282.508 88.8219 281.88 88.8647 281.53C88.8647 281.494 88.8647 281.423 88.7219 281.352C88.6662 281.325 88.6052 281.311 88.5434 281.311C88.4816 281.311 88.4206 281.325 88.3649 281.352C87.9008 281.552 87.4867 282.344 87.301 282.744V282.751Z" fill="#407BFF"/>
<path d="M121.922 292.104C121.383 292.102 120.846 292.054 120.316 291.962C120.291 291.957 120.268 291.944 120.251 291.927C120.233 291.909 120.221 291.886 120.216 291.862C120.21 291.836 120.213 291.81 120.225 291.786C120.237 291.763 120.256 291.744 120.28 291.733C120.358 291.683 122.186 290.641 123.064 290.876C123.229 290.918 123.37 291.024 123.457 291.169C123.513 291.249 123.543 291.343 123.543 291.44C123.543 291.538 123.513 291.632 123.457 291.712C123.25 292.026 122.6 292.104 121.922 292.104ZM120.715 291.776C121.694 291.912 123.022 291.905 123.264 291.569C123.264 291.526 123.329 291.448 123.264 291.291C123.238 291.247 123.203 291.208 123.161 291.179C123.119 291.149 123.072 291.129 123.022 291.119C122.458 290.969 121.379 291.448 120.715 291.776Z" fill="#407BFF"/>
<path d="M120.337 291.962C120.314 291.968 120.289 291.968 120.266 291.962C120.248 291.949 120.234 291.932 120.225 291.911C120.216 291.891 120.213 291.869 120.216 291.847C120.216 291.79 120.366 290.377 121.03 289.827C121.128 289.745 121.242 289.684 121.365 289.647C121.488 289.61 121.616 289.598 121.744 289.613C122.079 289.648 122.179 289.82 122.201 289.962C122.301 290.555 121.044 291.69 120.416 291.976L120.337 291.962ZM121.622 289.82C121.463 289.824 121.31 289.882 121.187 289.984C120.791 290.437 120.541 291 120.473 291.598C121.123 291.212 121.972 290.319 121.901 289.962C121.901 289.962 121.901 289.848 121.658 289.827L121.622 289.82Z" fill="#407BFF"/>
<path d="M114.574 291.84H119.815L120.336 279.695H115.095L114.574 291.84Z" fill="#7F3E3B"/>
<path d="M81.1602 281.816L86.3152 282.787L92.1201 271.513L86.965 270.549L81.1602 281.816Z" fill="#7F3E3B"/>
<path d="M86.8791 282.251L81.2385 280.552C81.1392 280.522 81.0329 280.528 80.9369 280.567C80.8409 280.605 80.7609 280.676 80.7102 280.766L78.3683 284.936C78.3124 285.038 78.2803 285.151 78.2744 285.268C78.2686 285.384 78.289 285.5 78.3344 285.607C78.3797 285.714 78.4487 285.81 78.5362 285.886C78.6237 285.963 78.7274 286.019 78.8395 286.05C80.8173 286.607 81.8097 286.764 84.2873 287.528C85.8153 287.985 89.828 289.67 91.9414 290.291C94.0548 290.912 94.9473 288.92 94.1405 288.47C90.5277 286.464 88.5071 284.293 87.6003 282.808C87.438 282.539 87.1807 282.34 86.8791 282.251Z" fill="#263238"/>
<path d="M119.78 291.233H114.068C113.964 291.233 113.864 291.268 113.783 291.333C113.702 291.398 113.647 291.489 113.625 291.59L112.59 296.253C112.564 296.365 112.564 296.481 112.589 296.593C112.615 296.706 112.666 296.81 112.738 296.9C112.811 296.989 112.902 297.061 113.007 297.11C113.111 297.159 113.225 297.183 113.34 297.181C115.41 297.181 118.395 297.031 120.994 297.031C124.028 297.031 126.649 297.195 130.212 297.195C132.354 297.195 132.96 295.018 132.061 294.818C127.955 293.925 124.607 293.825 121.058 291.64C120.679 291.388 120.236 291.247 119.78 291.233Z" fill="#263238"/>
<path d="M88.5354 129.784C83.9801 131.926 82.1094 146.606 82.1094 146.606L92.5695 150.711C94.1925 146.737 95.5055 142.643 96.4965 138.466C97.9959 131.84 93.2121 127.556 88.5354 129.784Z" fill="#407BFF"/>
<path opacity="0.3" d="M88.5354 129.784C83.9801 131.926 82.1094 146.606 82.1094 146.606L92.5695 150.711C94.1925 146.737 95.5055 142.643 96.4965 138.466C97.9959 131.84 93.2121 127.556 88.5354 129.784Z" fill="black"/>
<path opacity="0.2" d="M95.34 134.089C95.6965 133.916 96.0697 133.78 96.4539 133.682C96.8712 135.248 96.8859 136.893 96.4967 138.466C95.5057 142.643 94.1928 146.737 92.5697 150.711L89.1211 149.362C89.7566 145.527 91.7058 135.831 95.34 134.089Z" fill="black"/>
<path d="M118.894 129.67C118.894 129.67 124.478 135.974 119.201 175.009H91.1481C90.9553 170.725 93.6613 149.69 89.5059 129.398C92.6092 128.801 95.7478 128.405 98.9021 128.213C102.873 127.984 106.855 127.984 110.826 128.213C113.549 128.487 116.247 128.974 118.894 129.67Z" fill="#407BFF"/>
<path opacity="0.3" d="M118.894 129.67C118.894 129.67 124.478 135.974 119.201 175.009H91.1481C90.9553 170.725 93.6613 149.69 89.5059 129.398C92.6092 128.801 95.7478 128.405 98.9021 128.213C102.873 127.984 106.855 127.984 110.826 128.213C113.549 128.487 116.247 128.974 118.894 129.67Z" fill="black"/>
<path opacity="0.2" d="M113.248 138.038C114.519 134.225 117.575 133.004 120.688 135.267C121.316 138.966 121.759 144.928 121.252 154.381L115.775 154.331C115.775 154.331 111.384 143.714 113.248 138.038Z" fill="black"/>
<path d="M122.137 135.432C122.409 137.067 122.708 138.852 123.044 140.551C123.38 142.25 123.758 143.978 124.158 145.663C124.897 148.978 125.902 152.228 127.164 155.381C127.485 156.095 127.814 156.852 128.178 157.523L128.642 158.365C128.759 158.555 128.895 158.732 129.049 158.894C130.112 159.902 131.314 160.753 132.619 161.421C135.702 163.024 138.88 164.436 142.136 165.648L141.358 169.504C137.517 169.238 133.729 168.465 130.091 167.205C129.114 166.864 128.16 166.461 127.235 165.998C126.222 165.481 125.265 164.861 124.379 164.149C123.858 163.72 123.38 163.242 122.951 162.721L122.608 162.271L122.387 161.935C122.237 161.714 122.087 161.493 121.952 161.271C121.395 160.379 120.902 159.486 120.445 158.587C118.773 155.09 117.449 151.439 116.489 147.684C116.011 145.849 115.568 144.021 115.211 142.172C114.854 140.322 114.497 138.516 114.283 136.545L122.137 135.432Z" fill="#7F3E3B"/>
<path d="M111.883 133.518C110.405 138.309 116.402 152.589 116.402 152.589L129.033 149.412C128.26 144.898 126.959 140.491 125.156 136.281C121.058 127.37 113.661 127.742 111.883 133.518Z" fill="#407BFF"/>
<path opacity="0.3" d="M111.883 133.518C110.405 138.309 116.402 152.589 116.402 152.589L129.033 149.412C128.26 144.898 126.959 140.491 125.156 136.281C121.058 127.37 113.661 127.742 111.883 133.518Z" fill="black"/>
<path d="M142.213 165.648L147.633 168.083L142.378 172.417C142.378 172.417 140.064 171.66 139.686 167.861L138.879 164.705L141.257 165.312C141.585 165.395 141.905 165.508 142.213 165.648Z" fill="#7F3E3B"/>
<path d="M150.511 170.71L145.235 173.859L142.379 172.388L147.627 168.054L150.511 170.71Z" fill="#7F3E3B"/>
<path d="M113.211 127.749C110.947 125.835 105.449 124.457 99.2947 124.115C95.7746 123.922 92.1547 124.5 90.6481 125.171C89.1416 125.842 90.9266 130.691 92.8972 130.798C91.8548 132.44 93.3685 135.61 95.6318 136.231C95.2748 138.973 102.186 139.23 106.342 137.017C109.698 135.253 115.924 130.041 113.211 127.749Z" fill="#263238"/>
<path opacity="0.2" d="M120.336 279.695L120.072 285.957H114.824L115.088 279.695H120.336Z" fill="black"/>
<path opacity="0.2" d="M86.9565 270.549L92.1187 271.52L89.1271 277.325L83.9648 276.354L86.9565 270.549Z" fill="black"/>
<path d="M100.416 110.67C100.73 115.868 100.644 118.924 103.272 121.594C107.213 125.607 113.632 123.236 114.874 118.024C115.995 113.355 115.288 105.643 110.205 103.566C109.084 103.102 107.862 102.933 106.658 103.076C105.453 103.218 104.305 103.667 103.323 104.38C102.341 105.093 101.559 106.045 101.049 107.146C100.54 108.247 100.322 109.46 100.416 110.67Z" fill="#7F3E3B"/>
<path d="M110.142 113.569C112.105 111.584 115.332 107.257 114.204 104.008C112.541 99.2031 107.578 100.831 108.371 101.788C105.515 99.9029 99.7459 99.81 100.953 102.338C95.7617 103.052 95.3405 105.158 96.7828 105.95C93.0842 109.478 93.2627 113.126 96.0688 112.855C93.9268 114.997 97.8681 119.238 102.273 121.259C103.773 117.332 111.798 116.618 110.142 113.569Z" fill="#263238"/>
<path d="M107.864 115.447C107.832 115.456 107.797 115.456 107.764 115.447C107.745 115.433 107.728 115.416 107.716 115.396C107.703 115.376 107.695 115.354 107.691 115.331C107.687 115.307 107.687 115.284 107.693 115.261C107.698 115.238 107.708 115.216 107.721 115.197C108.849 113.54 109.949 112.212 110.92 111.041C112.776 108.799 114.119 107.178 114.233 104.979C114.26 104.078 114.004 103.192 113.503 102.443C113.001 101.694 112.278 101.12 111.434 100.802C110.106 100.203 108.678 100.167 108.114 100.724C107.814 101.017 107.786 101.438 108.028 102.023C108.039 102.044 108.045 102.067 108.046 102.09C108.046 102.114 108.042 102.137 108.034 102.159C108.025 102.18 108.012 102.2 107.995 102.216C107.978 102.232 107.958 102.244 107.936 102.252C107.914 102.261 107.891 102.266 107.867 102.267C107.844 102.267 107.82 102.263 107.798 102.255C107.777 102.246 107.757 102.233 107.74 102.217C107.723 102.2 107.709 102.181 107.7 102.159C107.542 101.897 107.473 101.591 107.503 101.286C107.532 100.981 107.659 100.694 107.864 100.467C108.535 99.81 110.099 99.81 111.584 100.467C112.493 100.812 113.271 101.432 113.81 102.241C114.349 103.05 114.622 104.008 114.59 104.979C114.469 107.3 113.098 108.956 111.199 111.248C110.227 112.419 109.135 113.74 108.014 115.39C107.995 115.41 107.972 115.426 107.946 115.436C107.92 115.446 107.892 115.449 107.864 115.447Z" fill="#263238"/>
<path d="M108.121 112.983C108.216 114.272 108.733 115.494 109.591 116.46C110.734 117.717 111.933 116.932 112.133 115.404C112.312 114.019 111.941 111.698 110.541 111.006C109.142 110.313 108.028 111.427 108.121 112.983Z" fill="#7F3E3B"/>
<path d="M109.242 175.009C109.242 175.009 111.013 210.366 107.564 225.346C102.102 249.065 91.6563 276.575 91.6563 276.575L81.9316 274.74C81.9316 274.74 90.1212 247.194 91.9276 227.445C93.5199 209.709 91.1637 189.339 91.1637 175.009H109.242Z" fill="#263238"/>
<path opacity="0.2" d="M106.621 185.483C107.335 184.105 108.727 188.21 109.698 193.48C109.698 200.748 109.57 209.016 108.934 216.021C104.079 207.06 105.114 188.339 106.621 185.483Z" fill="black"/>
<path d="M94.041 273.59C94.0839 273.59 92.5202 276.961 92.5202 276.961L81.2676 274.769L82.4957 271.377L94.041 273.59Z" fill="#2C6BDB"/>
<path d="M119.237 175.009C119.237 175.009 127.091 208.488 127.662 224.489C128.283 242.432 122.021 284.743 122.021 284.743H113.139C113.139 284.743 112.047 242.103 111.647 225.76C111.219 207.945 100.766 175.009 100.766 175.009H119.237Z" fill="#263238"/>
<path d="M123.735 281.202C123.778 281.202 123.236 284.893 123.236 284.893H112.426L112.133 281.601L123.735 281.202Z" fill="#2C6BDB"/>
</svg>
